<?xml version="1.0" encoding="utf-8"?><!DOCTYPE svg PUBLIC "-//W3C//DTD SVG 1.1//EN" "http://www.w3.org/Graphics/SVG/1.1/DTD/svg11.dtd"><svg version="1.1" id="Contours" xmlns="http://www.w3.org/2000/svg" xmlns:xlink="http://www.w3.org/1999/xlink" x="0px" y="0px" width="1326.000000px" height="1326.000000px" viewBox="0.000000 0.000000 1326.000000 1545.000000" enable-background="new 0 0 1326.000000 1326.000000" xml:space="preserve" stroke="black" fill="none" stroke-linecap='round' stroke-linejoin='round'><path class="selected"  fill="#000000" opacity="1.000000" stroke="none" 
 	d="
M678.000014 0.000005 C679.833327 0.000005 681.666701 0.000005 683.750014 0.250009 C686.522597 1.644123 689.047682 3.743671 691.567152 3.736950 C697.114699 3.722151 702.674452 2.750530 708.201247 1.971542 C714.328017 1.108004 718.679396 3.952194 719.979811 10.115880 C721.174635 15.779134 720.321791 22.077834 727.922255 24.777511 C732.052077 26.244424 735.407607 27.448687 739.446242 25.114407 C744.328139 22.292704 747.437819 18.097333 747.792799 12.683713 C747.978346 9.854097 748.476271 7.866108 750.461989 5.979986 C752.427809 4.112790 754.163405 2.003253 756.000014 0.000000 C756.000014 0.000005 756.500014 0.000005 756.750014 0.250006 C758.666701 0.333340 760.333327 0.166673 762.000014 0.000006 C762.000014 0.000005 762.500014 0.000005 762.750014 0.250005 C767.636427 3.348487 771.947462 7.072329 771.791396 12.668806 C771.594496 19.731730 775.282057 23.171010 780.707228 26.026122 C783.798354 27.652903 786.180067 29.665713 786.124831 33.849069 C786.083449 36.982945 786.418227 40.573789 787.927748 43.185307 C791.449416 49.277886 801.067213 50.213475 806.614272 46.769444 C809.206801 45.159795 811.427199 45.335976 813.965590 46.433843 C815.661086 47.167153 817.465468 47.643872 819.190199 48.315045 C824.500319 50.381482 829.011305 47.321332 833.712538 45.919808 C837.376906 44.827393 839.835402 44.618787 842.901503 46.401486 C852.270827 51.849023 852.504713 62.100118 843.388075 68.107327 C840.260024 70.168515 836.860060 72.236905 837.062209 76.534779 C837.427992 84.309132 833.433546 89.209660 827.379469 93.265675 C825.173476 94.743558 823.380019 106.688733 824.444777 108.944753 C827.498488 115.414998 838.510695 118.528966 844.227492 113.860547 C848.070998 110.721799 851.069167 111.379018 854.835829 113.238835 C857.348830 114.479642 860.190443 115.924474 862.845290 115.850667 C871.995802 115.596257 878.341261 108.105222 876.883498 99.215962 C876.122633 94.576108 880.326308 94.024472 882.042372 91.504712 C883.496352 89.369756 886.638136 88.281560 887.796889 86.079640 C888.781020 84.209432 887.383803 81.198041 888.119215 79.063306 C890.074599 73.387662 886.957838 69.771115 882.931349 67.675588 C874.813185 63.450536 873.739027 54.738656 881.649428 48.883916 C884.890150 46.485284 888.837294 43.776093 892.514601 46.312783 C897.528639 49.771596 901.862868 50.758202 907.724928 46.847821 C911.630751 44.242337 915.876296 42.349473 920.329115 45.859185 C923.102004 48.044721 924.994887 49.408307 929.476393 47.724114 C933.464552 46.225320 937.661025 45.552556 938.777480 41.448159 C939.818556 37.621220 939.881178 33.015534 938.719740 29.265101 C937.799879 26.294896 934.277358 24.181157 932.087965 21.540063 C929.715163 18.677764 927.467848 15.925183 927.894301 11.573628 C928.691847 3.434988 937.471266 -1.618094 944.763075 2.263041 C952.594313 6.431287 957.889540 5.808351 964.000014 0.000005 C965.500014 0.000005 967.000014 0.000005 968.750014 0.250003 C969.804579 0.971248 970.624342 1.418612 971.411208 1.917753 C975.366347 4.426690 978.566176 6.910354 978.199049 12.697366 C977.803358 18.934533 979.943068 22.372912 985.202589 24.294837 C992.576369 26.989379 994.942519 36.250974 989.421523 41.951028 C986.629958 44.833180 982.367384 46.510117 980.162062 49.695725 C975.258620 56.779069 978.281691 64.781323 986.186537 69.084905 C990.218275 71.279904 992.507643 75.155789 991.937697 79.946347 C991.445754 84.080708 991.512587 88.450734 985.950331 90.130345 C980.758192 91.698148 977.098463 96.757802 978.172194 101.355542 C979.841933 108.505170 976.177992 111.397916 970.697096 114.141606 C968.395644 115.293691 965.858168 117.744878 965.259291 120.075986 C964.521864 122.945928 965.342177 126.397389 966.118056 129.437016 C967.711684 135.680425 978.354567 140.128316 983.831557 136.609975 C989.865370 132.733891 991.936903 132.819066 998.027663 136.413823 C1003.121352 139.420125 1012.177138 138.339894 1015.074538 133.170964 C1016.874587 129.959721 1017.326125 125.894742 1017.942397 122.140653 C1018.876967 116.447408 1023.757460 112.239514 1029.407851 111.901868 C1033.387221 111.664082 1036.191542 113.567448 1039.083022 115.612798 C1040.780287 116.813405 1043.751112 118.193105 1043.746230 119.483212 C1043.723280 125.604558 1042.186171 131.302846 1036.480360 135.033177 C1029.896254 139.337636 1027.623915 146.384633 1031.051894 153.328954 C1032.361098 155.981084 1035.114760 158.147847 1037.645277 159.911366 C1040.744154 162.071065 1044.287367 164.455266 1043.804701 168.193593 C1042.733778 176.490147 1046.655287 181.402898 1054.765273 182.180135 C1060.479262 182.727773 1064.286879 177.742101 1070.256606 178.716725 C1075.645522 179.596516 1080.548232 183.038808 1081.089125 188.594075 C1081.561293 193.441899 1080.347792 198.929417 1085.741591 202.364766 C1088.585829 204.176259 1091.063246 206.635426 1093.472914 209.036351 C1095.825453 211.380223 1095.426039 219.126042 1092.860365 220.956670 C1090.052260 222.960362 1086.624770 224.226704 1084.166640 226.553288 C1081.725844 228.863362 1081.910292 232.237584 1081.591567 235.720754 C1081.010512 242.070699 1083.968398 245.094579 1088.390761 247.847722 C1092.259169 250.256047 1095.620131 252.604680 1094.128432 258.163396 C1093.624159 260.042607 1094.040297 262.670934 1095.054091 264.337285 C1096.560805 266.813939 1098.675429 269.173833 1101.061415 270.810429 C1106.166884 274.312291 1106.161757 279.972478 1107.480605 284.941808 C1109.464735 292.417729 1120.410414 297.015386 1126.847670 292.652379 C1130.370009 290.265019 1133.559340 290.214146 1137.293227 291.718327 C1142.815077 293.942815 1148.536025 294.643529 1153.965102 291.471654 C1158.378920 288.892918 1165.076186 290.125554 1168.335219 293.653203 C1171.008437 296.546819 1171.047499 299.688451 1171.003554 303.097020 C1170.944960 307.645848 1171.306288 312.068028 1176.414442 313.971471 C1180.036757 315.321263 1182.336440 317.509007 1183.940321 321.232976 C1185.988417 325.988683 1183.661391 332.990361 1178.815077 335.351109 C1174.518568 337.444066 1169.817030 340.109624 1170.781264 345.828130 C1172.112196 353.722173 1168.111220 357.649358 1161.841933 360.749516 C1159.225233 362.043462 1158.080824 364.792241 1159.080336 367.493535 C1161.366225 373.670476 1157.673842 376.813634 1153.219618 379.143285 C1147.795302 381.980321 1144.887587 385.717290 1145.975356 392.055058 C1146.820937 396.982304 1146.154799 402.270757 1152.734511 404.541844 C1155.543105 405.511266 1157.957045 408.685857 1159.695937 411.404820 C1161.574477 414.341802 1155.996718 425.414861 1152.200575 426.666417 C1145.429579 428.898747 1142.192763 439.203526 1148.080092 444.484166 C1150.116957 446.311253 1152.678847 447.552861 1154.999770 449.063542 C1158.657118 451.444066 1158.262587 455.833104 1159.908461 459.207585 C1160.829726 461.096410 1156.255263 469.035069 1154.289198 469.789220 C1147.109633 472.543248 1145.685683 474.084630 1146.111098 481.183904 C1146.395888 485.937718 1144.049208 488.867070 1140.879652 491.540868 C1139.855483 492.404759 1138.175063 492.508641 1137.190566 493.398198 C1133.999525 496.281957 1132.427260 499.396306 1132.622817 504.319035 C1132.789320 508.510106 1133.018568 512.061894 1136.587172 513.881841 C1141.077773 516.172002 1145.453505 520.561894 1151.371840 516.311223 C1153.334853 514.901311 1156.158217 514.589665 1158.645277 514.028996 C1164.617934 512.682561 1173.312880 520.261907 1171.790053 526.148076 C1170.691908 530.392522 1169.443495 535.351506 1164.008315 537.055730 C1160.776381 538.069157 1158.701552 540.024541 1158.350233 544.004643 C1157.864272 549.511235 1158.251479 555.699529 1152.342299 559.129582 C1149.164076 560.974370 1147.311659 563.395146 1146.192152 567.111943 C1144.042372 574.248601 1144.846571 577.533452 1150.897963 581.017033 C1156.164931 584.049138 1160.186781 587.880315 1159.317763 594.778447 C1159.065321 596.781865 1158.738539 599.130132 1159.508681 600.842107 C1161.853041 606.053288 1169.930434 608.402348 1175.085585 605.320195 C1181.595717 601.427861 1187.675551 601.541203 1194.164687 605.439275 C1195.940321 606.505986 1198.743666 605.948491 1201.077528 605.979985 C1204.859755 606.031072 1206.832900 601.988774 1211.638442 602.663884 C1221.309706 604.022527 1226.677138 612.172673 1221.984511 620.817754 C1218.146864 627.888127 1210.974257 630.590154 1205.871108 626.857915 C1201.181288 623.428044 1196.878432 623.457463 1191.965834 625.456975 C1186.899916 627.518987 1186.126723 629.004094 1184.895644 634.286321 C1183.534804 640.124516 1183.782729 647.136418 1176.568007 649.856084 C1174.903822 650.483464 1172.692641 651.134770 1171.226454 650.546147 C1166.005385 648.449895 1161.419814 643.695989 1155.098647 647.594914 C1152.432387 649.239446 1148.923232 650.182073 1147.156386 652.486089 C1143.042616 657.850591 1146.172499 667.692693 1151.907729 671.177678 C1154.871596 672.978642 1157.518691 676.280034 1158.897353 679.506657 C1161.759657 686.205327 1156.403456 689.774968 1151.947279 692.884587 C1148.080336 695.583073 1144.667494 699.533757 1145.512953 703.262883 C1147.131606 710.404179 1143.514052 712.633733 1138.423598 715.209599 C1133.607680 717.646489 1132.353041 722.521855 1132.792250 728.664372 C1132.957289 730.972295 1131.337782 734.117925 1129.506239 735.676579 C1127.274550 737.575749 1124.024306 738.409490 1121.091811 739.300298 C1119.527846 739.775395 1116.697157 740.079533 1116.168471 739.294927 C1113.343642 735.102544 1109.240492 734.849919 1105.391493 736.011479 C1101.677260 737.132451 1097.996596 739.219487 1095.078627 741.771062 C1093.579359 743.081975 1093.109023 746.404729 1093.358778 748.688786 C1093.753310 752.299016 1091.314955 757.834233 1087.784682 759.284612 C1082.304457 761.536015 1078.290663 766.812749 1080.242079 771.049870 C1081.917860 774.688481 1080.053725 776.603703 1078.624770 778.742497 C1075.304091 783.712712 1068.512099 785.378728 1063.912001 782.297978 C1060.049452 779.711125 1056.100233 780.316350 1052.096449 781.036809 C1045.894301 782.152898 1043.185561 786.708501 1042.058974 792.314458 C1041.294814 796.117131 1045.267836 803.029851 1049.393202 804.942448 C1055.680067 807.857243 1057.830336 813.303899 1056.754042 819.213994 C1055.753554 824.706731 1058.607558 826.974370 1062.246352 828.570989 C1068.104384 831.141484 1068.830092 836.244756 1068.296645 841.081487 C1068.021376 843.577031 1064.782851 846.279363 1062.247939 847.885259 C1056.268813 851.673039 1053.661269 855.949834 1055.000258 861.485783 C1055.651747 864.180180 1052.653456 870.745610 1050.292983 871.793034 C1045.337904 873.991704 1041.157607 879.011662 1042.269057 883.401494 C1043.263442 887.329350 1044.349013 891.886662 1048.892958 894.058293 C1050.882826 895.009343 1052.724501 896.426274 1054.361830 897.927922 C1058.007704 901.271916 1056.233290 906.077947 1056.166274 909.833867 C1056.123549 912.217534 1051.623427 915.093266 1048.572035 916.710210 C1044.520155 918.857365 1042.670668 921.855718 1043.060927 926.092717 C1043.709975 933.137517 1043.001234 935.311528 1036.890395 937.922734 C1031.322890 940.301762 1029.354262 944.630925 1030.134413 949.949284 C1030.978041 955.700200 1027.798964 960.259160 1023.861830 961.153325 C1016.494154 962.826604 1016.859938 967.329045 1016.987624 972.582707 C1017.102919 977.324651 1015.510878 980.718572 1010.899306 983.215947 C1008.081313 984.742131 1003.961440 986.855779 1005.853712 992.077580 C1006.495802 993.849736 1006.121291 996.747014 1005.012709 998.240117 C1002.670729 1001.394231 1000.007155 1005.301762 996.630080 1006.482732 C990.159743 1008.745366 989.843825 1013.318730 990.056532 1018.478520 C990.259352 1023.401128 987.447218 1026.029179 983.570509 1027.870366 C980.005995 1029.563359 977.017897 1030.640019 977.748061 1036.128056 C978.590041 1042.456303 975.819655 1048.037114 969.451186 1051.049809 C968.693190 1051.408330 968.289931 1052.477544 967.666762 1053.167241 C965.174025 1055.926396 966.281386 1059.296513 965.786208 1062.431157 C964.931044 1067.844365 967.207350 1071.014653 971.500136 1072.866460 C976.925551 1075.206670 982.792433 1074.508305 987.228468 1070.978154 C992.188612 1067.030888 996.855116 1071.025517 1001.560683 1070.152104 C1001.887953 1070.091313 1002.855788 1071.601079 1002.942702 1072.440801 C1003.398634 1076.846928 1003.924452 1081.272344 1003.928542 1085.691533 C1003.932753 1090.247441 1006.685683 1092.830937 1009.949233 1094.943242 C1014.302260 1097.760747 1018.841505 1097.263799 1023.479140 1095.119634 C1026.371718 1093.782231 1030.026137 1091.673833 1032.520033 1092.471440 C1036.073866 1093.608037 1039.084242 1096.880864 1041.923476 1099.654057 C1043.678358 1101.367925 1043.793593 1103.680669 1043.334608 1106.487553 C1042.896986 1109.162969 1043.839003 1113.314824 1045.758925 1114.905034 C1053.444716 1121.271367 1058.118178 1121.852300 1065.509779 1115.620122 C1067.620741 1113.840215 1067.990736 1113.916997 1069.838637 1115.246709 C1075.199599 1119.104131 1081.208876 1121.015752 1087.652480 1118.674077 C1090.068373 1117.795903 1092.116591 1116.564946 1094.932997 1116.411382 C1100.772353 1116.092778 1106.024794 1121.065556 1106.132704 1126.856572 C1106.221571 1131.635503 1106.741957 1136.742070 1111.182387 1139.977055 C1116.027602 1143.507085 1121.138808 1142.730718 1126.141371 1140.326054 C1131.297255 1137.847661 1136.255019 1137.778935 1140.846205 1141.397466 C1144.651991 1144.396977 1146.594862 1148.459477 1147.045058 1153.324223 C1147.250624 1155.543950 1147.305556 1158.202886 1148.535902 1159.821050 C1151.928481 1164.283086 1159.155165 1165.702641 1164.430922 1162.911870 C1168.655898 1160.676762 1172.470229 1158.618413 1176.860609 1162.331792 C1180.543715 1165.447148 1188.180678 1165.936162 1192.000014 1163.444829 C1198.139906 1159.440068 1205.973647 1162.401006 1207.998305 1169.497929 C1208.887953 1172.616338 1209.721205 1175.751592 1210.649550 1178.858281 C1211.499403 1181.701787 1217.973647 1187.023808 1220.552504 1186.925542 C1224.635390 1186.770024 1228.492567 1186.272588 1232.084120 1183.669927 C1234.080946 1182.222783 1236.644789 1182.394414 1239.754530 1183.614751 C1243.731947 1185.175542 1247.774794 1189.102178 1253.488417 1185.526982 C1256.645644 1183.551396 1261.116469 1180.578740 1265.792738 1183.018926 C1269.650038 1185.031499 1273.623793 1186.910039 1274.053236 1192.190801 C1274.325575 1195.539922 1275.013930 1198.868047 1275.695448 1202.168340 C1276.882582 1207.916753 1289.397963 1210.715459 1294.105849 1207.391362 C1295.625258 1206.318486 1297.039442 1204.467412 1298.658095 1204.272832 C1305.890517 1203.403447 1311.652968 1209.449956 1312.133681 1217.084966 C1312.355360 1220.608281 1313.142958 1224.733525 1315.227919 1227.345464 C1318.032118 1230.858281 1322.338393 1233.171758 1326.000014 1236.000005 C1326.000014 1236.000005 1326.000014 1236.500005 1325.750014 1236.750005 C1325.425429 1243.816167 1321.598647 1248.099248 1316.101088 1251.483891 C1312.975600 1253.408086 1309.269911 1263.055058 1311.222182 1265.450566 C1315.726576 1270.977178 1321.024184 1275.857549 1326.000014 1281.000005 C1326.000014 1281.000005 1326.000014 1281.500005 1325.750014 1281.750005 C1325.666640 1283.666631 1325.833266 1285.333379 1326.000014 1287.000005 C1326.000014 1287.000005 1326.000014 1287.500005 1325.750014 1287.750005 C1321.901503 1291.265263 1317.829482 1294.146855 1314.805922 1297.878056 C1309.052382 1304.978154 1309.915419 1313.713750 1317.124525 1317.984380 C1321.687025 1320.687138 1323.739027 1324.058965 1326.000014 1328.000005 C1326.000014 1328.500005 1326.000014 1329.000005 1325.750014 1329.750005 C1324.589125 1335.224614 1321.117079 1338.129643 1316.802382 1340.867803 C1308.567763 1346.093755 1309.967421 1356.132085 1314.791762 1360.036015 C1319.397475 1363.763066 1323.676650 1367.444707 1326.000014 1373.000005 C1326.000014 1373.500005 1326.000014 1374.000005 1325.750014 1374.750005 C1323.719252 1377.780766 1322.338881 1380.956792 1320.069838 1383.255620 C1316.017592 1387.361089 1310.102187 1389.591435 1311.603285 1397.618779 C1312.281142 1401.243535 1313.286513 1403.836430 1315.700575 1406.182744 C1319.101576 1409.488164 1322.563979 1412.730595 1326.000014 1416.000005 C1326.000014 1416.833379 1326.000014 1417.666631 1325.750014 1418.750005 C1323.019789 1424.219975 1319.249770 1428.190801 1314.809218 1431.958135 C1309.382216 1436.562383 1310.225844 1448.347783 1316.267836 1451.439214 C1320.790785 1453.753301 1323.703139 1456.848637 1326.000014 1461.000005 C1326.000014 1461.833379 1326.000014 1462.666631 1325.750014 1463.750005 C1324.120619 1467.885014 1323.152235 1471.774541 1318.337782 1473.433476 C1316.244154 1474.154790 1314.881972 1477.054570 1313.234511 1479.004643 C1309.706801 1483.180547 1312.094862 1495.008550 1316.126357 1496.363530 C1321.072401 1498.026006 1324.044692 1500.692143 1325.182753 1505.644658 C1325.222304 1505.816533 1325.717299 1505.883916 1326.000014 1506.000005 C1326.000014 1506.500005 1326.000014 1507.000005 1325.750014 1507.750005 C1324.857558 1513.601079 1321.881117 1516.931645 1316.561293 1519.173955 C1311.883559 1521.145635 1309.174330 1530.498174 1312.184096 1534.765141 C1314.988905 1538.741460 1319.333388 1541.631596 1323.000014 1545.000005 C1313.500014 1545.000005 1304.000014 1545.000005 1294.250014 1544.750005 C1293.402846 1544.333257 1292.805678 1544.021123 1292.208388 1544.020757 C1249.402480 1543.997929 1206.596571 1543.993657 1163.790663 1544.041753 C1162.860121 1544.042851 1161.930190 1544.666631 1161.000014 1545.000005 C1136.166640 1545.000005 1111.333388 1545.000005 1086.250014 1544.750005 C1079.923598 1544.333379 1073.847426 1544.075810 1067.770400 1544.053227 C1065.848158 1544.046025 1063.923598 1544.666753 1062.000014 1545.000005 C1042.166640 1545.000005 1022.333327 1545.000005 1002.250014 1544.750005 C987.784071 1544.382573 973.568129 1544.263066 959.352065 1544.183110 C959.236281 1544.182500 959.117445 1544.715947 959.000014 1545.000005 C872.833327 1545.000005 786.666701 1545.000005 700.250014 1544.750005 C692.690688 1540.458745 691.936171 1534.724980 697.922987 1528.968144 C698.004286 1528.889897 697.676161 1528.081548 697.453932 1528.036870 C692.444594 1527.029057 688.831923 1524.720586 688.505629 1519.026738 C688.352187 1516.348271 687.111159 1515.045659 684.163405 1514.386479 C682.264784 1513.962041 679.407118 1511.271245 679.494887 1509.740605 C679.764296 1505.042729 676.984633 1503.564092 673.943983 1501.023198 C670.527113 1498.167973 669.235365 1493.093633 664.172133 1491.380376 C662.974928 1490.975224 662.636488 1487.866094 662.017043 1485.963750 C661.345839 1483.902348 660.611220 1481.830815 660.251906 1479.704961 C659.460097 1475.020146 658.727919 1470.512578 654.262831 1467.468511 C653.386244 1466.871098 654.199782 1463.994511 653.930800 1462.214848 C653.810439 1461.418218 652.996596 1460.146977 652.403822 1460.091557 C646.945570 1459.581059 645.467787 1455.934331 644.941725 1451.286260 C644.850111 1450.476933 644.171462 1449.409917 643.463454 1449.045537 C637.469618 1445.959721 636.616469 1437.764775 642.142165 1433.926152 C642.789809 1433.476201 642.731154 1432.009648 643.000014 1431.014409 C642.212233 1431.009648 641.409804 1430.904424 640.639052 1431.016484 C636.127638 1431.673100 631.280287 1431.890386 630.119276 1426.404790 C629.036940 1421.290776 628.208571 1416.187627 626.025038 1411.396611 C625.836379 1410.982793 625.914992 1410.390752 626.014357 1409.911382 C626.494154 1407.597661 625.581801 1406.248784 623.569533 1404.948979 C620.035719 1402.666264 618.582411 1399.396489 618.878127 1394.890263 C619.310378 1388.303227 618.329787 1388.272466 611.695998 1384.693974 C609.054823 1383.269170 607.446059 1379.350346 606.090163 1376.250737 C603.692702 1370.770390 605.048354 1364.021977 597.458510 1360.490117 C591.025221 1357.496587 591.798354 1345.057011 597.500746 1340.952153 C599.878798 1339.240239 602.135939 1337.213139 603.991652 1334.954350 C607.536574 1330.639165 606.553053 1321.695195 601.991713 1319.666142 C595.111769 1316.605595 592.447585 1312.164678 593.756850 1304.584721 C594.145094 1302.336675 592.280043 1298.276982 590.320204 1297.293340 C582.086928 1293.160649 579.608168 1292.721440 580.074171 1282.437749 C580.266859 1278.184697 579.272047 1275.278691 574.906752 1273.935674 C573.467421 1273.492925 571.875685 1272.572392 571.027296 1271.387944 C569.340590 1269.032719 566.902419 1266.316655 566.956007 1263.796269 C567.077773 1258.080205 565.751112 1254.074345 560.614394 1250.853398 C556.033949 1247.981328 551.999709 1243.387944 553.232741 1237.597295 C554.342604 1232.385381 551.686964 1230.691655 548.258192 1228.757573 C544.622206 1226.706303 541.195509 1224.603764 540.957533 1219.684453 C540.702467 1214.411382 540.675612 1208.878545 534.705458 1206.212041 C528.589430 1203.480595 528.283644 1198.019536 527.916518 1192.410039 C527.786452 1190.422612 527.140700 1188.136235 525.924330 1186.642949 C524.611647 1185.031377 522.482192 1183.871831 520.485854 1183.072026 C515.249831 1180.974126 513.722487 1175.936894 514.349501 1171.850224 C515.142348 1166.682866 513.559096 1164.000371 509.535933 1162.095952 C501.510695 1158.297002 498.823012 1151.885259 500.185469 1147.157842 C501.159773 1143.777104 500.034163 1141.360722 497.771773 1140.490971 C490.386305 1137.651616 489.409041 1131.866826 488.869337 1125.092900 C488.327620 1118.294072 482.396864 1114.290410 476.348525 1114.075810 C470.288466 1113.860722 463.806136 1119.863042 464.114333 1125.702641 C464.495711 1132.927373 461.808821 1137.437016 455.035811 1140.118901 C451.790694 1141.403935 450.156142 1144.310429 450.702742 1148.323857 C451.087019 1151.145635 451.312209 1154.551885 450.068831 1156.871953 C448.859969 1159.128056 445.806807 1160.533940 443.358015 1161.960454 C437.281264 1165.500249 435.906355 1171.555303 438.127852 1177.938847 C439.747328 1182.592412 443.507277 1184.331914 446.581282 1186.873662 C453.385970 1192.500249 450.864058 1200.247807 446.049117 1204.488896 C443.710555 1206.548711 441.401961 1208.685307 439.366805 1211.035771 C436.976607 1213.796269 437.087569 1224.153935 439.371596 1226.807744 C439.714217 1227.205937 440.518141 1227.201421 441.104170 1227.396611 C447.943556 1229.674687 450.081099 1232.504277 449.961043 1239.742803 C449.892134 1243.897588 451.054610 1247.426396 454.452742 1249.856450 C455.962141 1250.935918 458.626814 1250.925176 459.512190 1252.248784 C461.724135 1255.555303 464.855635 1259.517827 464.494704 1262.882085 C464.192397 1265.699590 462.698744 1270.065434 458.039992 1271.898930 C454.823134 1273.164922 452.402113 1277.163701 450.380660 1280.411260 C449.557631 1281.733525 451.183058 1284.363530 450.910628 1286.287602 C450.253554 1290.928960 452.099501 1292.992314 456.156325 1295.426762 C459.490981 1297.427983 462.994246 1299.707036 463.368514 1305.225835 C463.670088 1309.672246 463.325575 1315.364507 469.492079 1318.321904 C474.653151 1320.797002 477.313521 1330.210942 474.886885 1334.637700 C472.969099 1338.136235 470.623213 1341.156743 465.413405 1341.228398 C459.974562 1341.302983 455.536421 1337.840337 449.767073 1338.668095 C445.034224 1339.347051 438.588942 1341.345464 437.000014 1345.745732 C434.747237 1351.984380 438.225020 1360.000493 443.986769 1363.697759 C446.636794 1365.398198 450.067213 1368.380010 450.217390 1370.951665 C450.516982 1376.082646 450.721205 1382.031133 443.979506 1384.745122 C441.604292 1385.701299 439.129103 1388.177861 438.217757 1390.544804 C437.129652 1393.370854 437.431990 1396.833989 437.559676 1400.003789 C437.773329 1405.307988 442.990706 1406.168340 445.897994 1409.119878 C448.132399 1411.388066 450.988966 1415.051518 450.536177 1417.543584 C449.571577 1422.852544 451.171797 1426.231206 454.869063 1429.400639 C457.336470 1431.516240 460.094832 1433.497441 461.896651 1436.109013 C463.017531 1437.733525 463.473372 1440.830693 462.675368 1442.544072 C461.230666 1445.646123 459.017958 1448.667607 456.414870 1450.889897 C452.281538 1454.418584 450.468733 1457.811284 450.572401 1463.804082 C450.682539 1470.170293 452.962264 1473.071904 457.984236 1475.664067 C460.553175 1476.989995 462.685774 1478.959111 462.172469 1483.012456 C461.396468 1489.140630 462.218245 1494.819707 469.817793 1497.195928 C473.040480 1498.203618 475.743849 1501.017949 475.082289 1505.609624 C474.140242 1512.147710 476.559859 1517.130376 482.866133 1520.074101 C485.106886 1521.119878 488.299818 1522.732427 488.689711 1524.584721 C489.460219 1528.245488 489.962630 1533.242192 488.067427 1535.893681 C484.989424 1540.199712 480.040694 1543.903447 474.236556 1543.912846 C394.923445 1544.042363 315.610060 1544.000005 236.296721 1544.000005 C163.148512 1544.000005 90.000235 1544.026860 16.852282 1543.891240 C14.207385 1543.886357 11.090071 1542.890874 9.029951 1541.283940 C5.657705 1538.653691 2.974058 1535.140752 0.000015 1532.000005 C0.000014 1532.000005 0.000014 1531.500005 0.250018 1531.250005 C0.333356 1529.333379 0.166689 1527.666631 0.000018 1526.000005 C0.000014 1526.000005 0.000014 1525.500005 0.250012 1525.250005 C3.162532 1523.004155 5.708574 1520.822148 8.519497 1519.063481 C11.479808 1517.211308 14.247490 1515.683720 13.093657 1511.299565 C12.547910 1509.225835 12.421550 1506.681645 13.126793 1504.717534 C14.390764 1501.197392 12.982915 1498.087651 10.468470 1497.271733 C5.376938 1495.619389 3.178935 1491.405156 0.000014 1488.000005 C0.000014 1486.166631 0.000014 1484.333379 0.250014 1482.250005 C2.703232 1478.241704 5.581273 1475.465947 9.677168 1473.502324 C11.582656 1472.588750 13.108350 1469.475713 13.492361 1467.143315 C14.001387 1464.051518 13.344356 1460.733281 12.948190 1457.542119 C12.756915 1456.001225 12.358547 1453.489873 11.468601 1453.197148 C6.412538 1451.533818 2.586809 1448.610967 0.000014 1444.000005 C0.000014 1441.833379 0.000014 1439.666631 0.250013 1437.250005 C2.848993 1434.349004 4.716081 1430.786504 7.647314 1429.236821 C13.729716 1426.021123 16.620842 1415.238408 11.854161 1410.399663 C8.008296 1406.495854 3.959031 1402.792363 0.000000 1399.000005 C0.000014 1396.833379 0.000014 1394.666631 0.250016 1392.250005 C2.820644 1389.987309 4.844099 1387.345952 7.518546 1386.081792 C15.049994 1382.521367 17.292832 1371.756841 11.317947 1365.841924 C7.605687 1362.166875 3.776627 1358.609990 0.000006 1355.000005 C0.000014 1355.000005 0.000014 1354.500005 0.250014 1354.250005 C0.469185 1346.893559 3.367243 1342.183476 10.465985 1339.682622 C12.439640 1338.987309 14.999552 1335.903569 13.132873 1332.141484 C12.337356 1330.538213 12.382834 1327.935063 13.127706 1326.270268 C14.707446 1322.739751 12.856027 1320.349492 10.487729 1319.212285 C6.018843 1317.066533 2.942426 1313.693608 0.000014 1310.000005 C0.000014 1310.000005 0.000014 1309.500005 0.250019 1309.250005 C0.333357 1307.333379 0.166690 1305.666631 0.000019 1304.000005 C0.000014 1304.000005 0.000014 1303.500005 0.250014 1303.250005 C3.346106 1300.406133 5.429363 1297.161992 9.481159 1295.644658 C11.440113 1294.911137 14.112449 1293.042607 13.325446 1288.603032 C12.135385 1281.890019 12.239671 1274.583745 21.786187 1272.391728 C23.718136 1271.948003 26.183728 1269.451177 25.333174 1265.221440 C24.470473 1260.931157 24.804198 1255.524541 29.868716 1252.635869 C31.349265 1251.791509 32.801779 1250.874638 34.352614 1250.182256 C37.042399 1248.981572 38.274695 1247.521977 38.191569 1244.083012 C38.067961 1238.969121 38.342635 1233.634282 43.373976 1230.008550 C47.314940 1227.168584 55.323718 1225.088750 56.857050 1227.539067 C59.836760 1232.300664 63.684058 1232.132329 68.098113 1230.593388 C73.638007 1228.661626 76.551215 1224.026616 76.069342 1218.494023 C75.955000 1217.181157 76.303732 1215.432378 77.133269 1214.504155 C80.088957 1211.196660 83.220961 1208.017705 86.540572 1205.077275 C88.042754 1203.746709 90.397948 1204.180058 89.359663 1200.386601 C88.433157 1197.001592 89.313651 1192.037969 91.374838 1189.215825 C93.554083 1186.232182 98.083571 1184.977300 101.561888 1182.925664 C103.849295 1181.576543 105.522696 1181.854985 107.535857 1183.875493 C110.347655 1186.697636 113.872939 1187.442143 118.072440 1186.663823 C125.229468 1185.337407 129.284331 1180.211553 128.000014 1173.069341 C127.327971 1169.332158 134.455519 1159.667119 137.796660 1160.553105 C140.975066 1161.395757 144.176360 1160.770512 147.577315 1162.511968 C151.968047 1164.760381 158.225401 1166.013554 162.566634 1161.687993 C166.172957 1158.094731 168.698454 1159.786382 172.110045 1161.434819 C174.626906 1162.651128 176.595244 1164.612920 180.321791 1164.294438 C187.591139 1163.672978 193.162810 1159.701665 192.926192 1152.726933 C192.716917 1146.557744 195.623808 1142.035527 200.131926 1138.717412 C201.843047 1137.458012 205.150481 1137.712895 207.542418 1138.200200 C210.462813 1138.795049 213.144728 1140.476445 216.002440 1141.481328 C221.407683 1143.382207 226.012221 1140.506108 229.579695 1137.500371 C232.526122 1135.017705 234.915007 1137.035771 235.843031 1137.797368 C242.496382 1143.257939 246.121672 1143.559697 252.888945 1138.696904 C255.597182 1136.750859 258.437331 1135.860234 261.558913 1138.833867 C263.128676 1140.329350 265.855391 1140.597173 268.043562 1141.459111 C273.502303 1143.609258 277.048476 1139.732915 281.150557 1137.445195 C282.075575 1136.929448 283.782729 1136.667729 284.535689 1137.173589 C290.401198 1141.113774 296.174208 1143.983769 303.309218 1139.846074 C306.216048 1138.160405 309.750868 1132.691899 308.963667 1129.463628 C307.835982 1124.838994 310.619276 1119.467656 315.107375 1117.607427 C320.447493 1115.393803 322.096053 1113.301396 321.902785 1107.079350 C321.767439 1102.721684 322.641035 1099.058843 326.027144 1096.266118 C327.190077 1095.307134 328.753188 1094.846440 329.979292 1093.947759 C331.721938 1092.670415 338.768172 1092.459599 340.000014 1093.796025 C344.360945 1098.527226 349.748885 1099.255010 354.325545 1095.016240 C358.064650 1091.553105 361.209608 1092.350957 365.115401 1094.452397 C367.671431 1095.827641 370.811537 1096.977178 373.625502 1096.845708 C380.905165 1096.506108 382.177809 1093.923100 385.589949 1086.478276 C386.940199 1083.532109 385.500899 1081.697270 386.057265 1079.478520 C387.708144 1072.894902 398.909499 1068.612187 404.756483 1072.256474 C410.244887 1075.677251 418.596968 1074.859990 423.126906 1070.265630 C423.897170 1069.484502 424.048933 1068.024175 424.327559 1066.840215 C425.337721 1062.547856 423.122389 1057.608891 426.989455 1053.875371 C428.388655 1052.524541 429.577315 1049.962285 431.017683 1049.843755 C434.563673 1049.552007 437.506697 1045.171758 441.880171 1049.099858 C446.598433 1053.337529 452.332198 1052.914067 458.000472 1049.499638 C461.278975 1047.524785 469.460371 1049.290410 472.553267 1051.905522 C476.408797 1055.165654 476.507063 1059.519292 476.946333 1063.792607 C477.380293 1068.014287 478.229109 1071.067387 483.254652 1072.455083 C485.946150 1073.198369 489.664931 1076.188603 488.587691 1080.168462 C486.238875 1088.846074 490.737410 1093.191655 497.411543 1097.244267 C499.691206 1098.628423 501.728835 1102.400884 501.758650 1105.105595 C501.831191 1111.684331 504.138136 1115.782597 510.064345 1118.965093 C512.816115 1120.442876 515.722731 1124.734380 515.684828 1127.713750 C515.577834 1136.113896 515.464003 1136.814336 522.667983 1141.049077 C525.822340 1142.903203 529.461623 1144.803227 528.973097 1149.415776 C527.984328 1158.751469 528.394972 1159.226933 536.403883 1164.126347 C538.462172 1165.385503 540.982558 1168.548955 540.719618 1170.489018 C539.496046 1179.518559 540.251112 1181.977055 547.508681 1186.007085 C553.087904 1189.105107 555.360060 1194.072636 553.534865 1199.039067 C553.292250 1199.699223 553.647536 1200.684697 553.954359 1201.424809 C556.972914 1208.706181 569.250380 1211.120488 573.647536 1206.378545 C578.087172 1201.590825 583.576125 1203.419316 585.359023 1205.545171 C589.623732 1210.630620 593.297987 1209.926274 597.988966 1207.492436 C601.712599 1205.560674 606.249587 1203.820928 604.881361 1198.537236 C603.216505 1192.107793 606.414320 1188.316899 611.122939 1185.529057 C616.120009 1182.570561 619.593153 1178.968755 618.936781 1172.898320 C618.390395 1167.845586 620.703017 1164.996953 624.817275 1162.581181 C632.155959 1158.272221 642.468459 1163.198857 642.944045 1171.584355 C643.037978 1173.241338 641.784193 1175.138066 642.240920 1176.579106 C643.407607 1180.260381 645.004469 1183.411015 649.299513 1185.212529 C653.865675 1187.127812 658.038893 1190.139653 656.215773 1196.925786 C655.347182 1200.158818 656.711623 1203.953374 660.907607 1205.442754 C667.617445 1207.823735 670.495070 1213.103520 669.284071 1220.262212 C669.176405 1220.898686 669.614821 1221.632451 669.817824 1222.315678 C671.949355 1229.486455 680.184828 1233.086553 686.826247 1229.642583 C691.262648 1227.341924 695.782790 1224.909062 700.570082 1228.180547 C705.006606 1231.212529 709.919997 1231.121953 714.224989 1229.540288 C716.910719 1228.553594 720.346693 1224.712529 720.342116 1222.157964 C720.323744 1211.814092 721.858107 1208.642339 730.554274 1205.778813 C731.982985 1205.308354 733.587050 1203.302129 733.847731 1201.788335 C734.368239 1198.765263 733.658766 1195.541264 734.090285 1192.489751 C735.149306 1185.001225 747.795607 1180.304936 753.993361 1184.980718 C758.361586 1188.276372 762.757643 1187.248906 766.999281 1184.957890 C771.205885 1182.685552 774.604933 1178.388677 773.674696 1174.243413 C772.042860 1166.972295 777.379958 1164.743413 780.889052 1161.077031 C781.706679 1160.222661 783.658095 1159.809331 784.870375 1160.100102 C788.237929 1160.907719 791.485976 1162.207890 794.790175 1163.286137 C801.836256 1165.585576 814.323561 1161.665776 811.869276 1152.059697 C810.063673 1144.992558 814.481215 1142.471562 819.012221 1139.388677 C820.884169 1138.114995 823.363173 1136.401616 823.745314 1134.518803 C824.913771 1128.761845 824.944228 1122.984746 819.972853 1118.377446 C817.241469 1115.846074 814.574110 1113.056157 812.657546 1109.907964 C811.553236 1108.094365 811.032179 1104.789311 811.968337 1103.120244 C813.609328 1100.194829 816.259596 1097.556523 819.058730 1095.627446 C822.931593 1092.958257 824.232924 1089.501836 823.977248 1085.182744 C823.646925 1079.601811 826.742995 1074.013799 831.417616 1072.082402 C837.689650 1069.491094 838.804762 1067.623784 837.983473 1060.639409 C837.489027 1056.434453 839.939772 1053.086675 842.693373 1051.261357 C847.882765 1047.821538 847.748610 1048.183598 849.102126 1043.552251 C851.491896 1035.375005 849.539870 1029.731572 841.641127 1025.803838 C839.484328 1024.731328 837.118849 1021.190678 837.250502 1018.922063 C837.726942 1010.710393 834.078078 1006.058232 826.936781 1002.794194 C825.080031 1001.945500 822.929213 998.167546 823.411208 996.426579 C825.030287 990.579472 823.102004 986.291020 818.645949 983.335881 C813.788954 980.114873 811.662917 976.169988 811.933363 970.417119 C812.179152 965.188908 818.206435 958.976750 823.558791 959.000005 C829.963026 959.027837 837.755385 966.382573 837.955641 972.882268 C838.107192 977.802983 839.764540 981.466557 844.224318 984.084905 C848.271132 986.460759 849.942275 990.423955 849.298415 995.204594 C848.582289 1000.521489 853.704909 1007.153325 859.310683 1008.189275 C868.551588 1009.897160 874.610426 1004.180425 874.038710 994.357610 C874.007338 993.819707 874.662672 993.275700 874.786818 992.689702 C875.911635 987.379216 879.778883 984.563237 884.091505 981.954167 C888.182021 979.479192 890.112746 975.901799 888.514113 970.950566 C888.219862 970.039189 888.517714 968.922856 888.600600 967.905888 C888.943861 963.694341 892.532668 962.178594 895.347731 960.239690 C904.172072 954.161809 904.128615 945.252934 895.768019 938.847051 C892.104506 936.040105 887.585219 933.285405 887.584059 927.207219 C887.582961 921.663091 891.663466 919.504216 895.050795 917.101384 C904.627760 910.308049 904.622267 899.982121 894.853407 893.946538 C891.057387 891.601262 888.395155 888.185796 887.985671 883.428288 C887.714919 880.282048 891.352736 873.132512 893.768996 872.269048 C900.714674 869.786870 902.396254 867.968938 901.877150 860.821050 C901.446364 854.889592 903.809035 851.500127 908.858107 848.900029 C912.232802 847.162114 915.262465 844.633122 913.087355 839.829167 C912.634779 838.829717 913.196852 837.303716 913.464186 836.057378 C914.552199 830.985417 918.460280 828.155339 922.585341 826.123357 C927.251418 823.824773 928.095534 820.242192 927.350356 815.922185 C926.498793 810.985295 929.510390 806.526921 934.378859 804.791814 C937.125197 803.813054 940.345961 802.367864 939.123366 797.848027 C938.490553 795.508855 938.696364 792.704472 939.339064 790.331120 C939.891554 788.290715 941.187025 785.919988 942.883131 784.825627 C947.111830 782.097539 950.838576 779.423955 952.467848 774.190434 C953.930739 769.491155 952.045912 762.827947 947.958937 760.967778 C945.965285 760.060307 943.197890 759.237798 942.451857 757.610722 C941.508254 755.552800 938.846205 754.597478 939.662795 750.890935 C940.778639 745.826421 939.606459 740.146733 933.826491 737.379887 C931.342299 736.190740 930.097609 734.395268 928.858778 731.920903 C926.290480 726.791264 928.200270 716.330083 933.420729 715.561467 C937.504836 714.960088 938.849928 712.439214 939.656264 710.321843 C940.754103 707.438664 940.738661 703.617070 939.853529 700.591924 C937.419936 692.274419 925.991347 688.531926 919.077650 693.454533 C915.447524 696.039189 912.315260 696.622990 908.559279 693.228825 C904.232253 689.318486 894.611159 691.406438 890.972609 696.527287 C885.530226 704.186772 889.261916 715.619206 898.107802 718.394048 C898.411452 718.489323 898.802138 718.538396 898.985182 718.752141 C901.878066 722.130742 901.795424 729.404729 898.739027 732.721257 C897.272414 734.312627 895.783034 736.584844 893.957350 736.991155 C890.607130 737.736760 887.221083 740.471196 883.438429 737.083135 C878.347182 732.522893 872.578688 733.085820 866.976271 737.769475 C864.463149 739.870427 860.773085 740.573003 858.554152 738.767339 C852.530653 733.865788 847.381239 735.148991 841.389906 738.747014 C839.480727 739.893559 835.818434 740.063481 833.180983 738.016667 C828.427931 734.328008 822.497817 733.652715 818.635390 737.013493 C814.043715 741.008794 809.944350 741.436955 805.036513 737.638371 C799.815749 733.597600 794.388319 733.730107 789.116347 737.976262 C786.259169 740.277409 783.563368 739.549748 780.292799 737.979009 C770.562758 733.305852 771.784865 721.878789 779.394606 716.978581 C783.836867 714.117986 787.625929 702.841679 785.836989 698.336980 C784.083998 693.922856 773.485854 690.158147 769.215224 692.237981 C763.175429 695.179509 757.422621 697.217656 750.968275 692.009160 C749.097121 690.499089 743.944167 688.492680 740.725844 693.373540 C739.753493 694.848088 735.825880 695.041936 733.388075 694.736272 C728.987990 694.184575 725.450453 691.119817 720.265822 691.565984 C716.649977 691.877141 713.872633 692.845158 711.079176 694.479253 C704.122084 698.549077 706.312087 712.957585 713.740858 716.208012 C718.372206 718.234441 720.594923 721.526494 720.008131 726.634831 C719.349562 732.368047 722.271559 735.680180 727.225539 738.091069 C730.522292 739.695439 733.288527 741.364385 733.385634 746.548467 C733.512526 753.328069 733.053358 756.334844 727.580092 760.066228 C724.736281 762.005071 720.747206 764.586614 720.344313 767.328740 C719.314101 774.338872 720.613295 781.040166 728.877638 784.136296 C732.513258 785.498296 734.466261 788.598882 733.101393 793.180608 C731.948988 797.049260 735.058669 804.028813 738.871962 805.161748 C745.411513 807.104741 745.181776 812.107060 745.426283 817.042790 C745.742690 823.427739 747.777907 826.329778 752.487502 828.213445 C755.105483 829.260503 758.202162 832.224004 758.672682 834.769292 C759.316298 838.250920 757.849623 842.204961 756.884108 845.849614 C756.608290 846.890874 755.055067 848.000310 753.880507 848.321599 C750.153883 849.341008 747.228651 851.015141 747.230971 855.314763 C747.232802 858.668401 748.510390 862.263188 747.658949 865.315007 C746.565016 869.235844 749.046278 870.574407 751.175734 871.482427 C756.074599 873.571538 757.941420 876.110722 758.478224 882.052373 C759.087599 888.797124 756.897658 891.616216 751.621169 894.052434 C747.729140 895.849309 746.354811 899.242253 746.999587 903.453313 C747.871108 909.145451 745.629408 913.246282 740.656508 916.005376 C731.237868 921.231267 730.293959 931.133122 738.533522 938.033391 C743.776198 942.423894 749.315077 943.101750 753.870741 939.568486 C758.414137 936.044682 759.359694 930.702763 759.864760 925.460820 C760.127272 922.736394 765.538527 916.169072 768.207228 915.649419 C775.707411 914.189031 779.873488 919.594243 784.756178 923.419011 C785.647963 924.117497 786.144728 926.106328 785.911635 927.325139 C784.571303 934.332036 785.495070 936.638127 791.370497 939.878850 C798.184828 943.637456 800.199355 946.288152 796.971205 954.374455 C794.447890 960.695256 786.153334 965.972356 778.600661 959.196172 C777.759779 958.441655 776.181960 957.865788 775.141310 958.094853 C771.747389 958.841740 768.090163 959.405583 765.186049 961.134709 C760.437697 963.961919 756.414198 962.771611 752.606276 960.007024 C747.540602 956.329228 745.068739 955.940251 739.937880 959.634160 C736.480116 962.123418 733.283095 964.121037 729.231154 960.774968 C725.944533 958.060857 721.779555 956.387151 721.872023 950.838139 C721.951003 946.098943 722.709731 940.898808 716.922194 937.883122 C712.799452 935.735051 703.479750 936.502080 699.887587 939.392339 C698.211806 940.740544 694.191969 941.825017 693.202040 940.907048 C689.369704 937.353764 684.799574 936.569585 680.136855 936.087224 C676.104201 935.670171 667.964858 942.666631 669.123305 946.689824 C670.390334 951.089909 667.337050 959.670171 662.640578 961.445256 C658.945509 962.841802 654.178542 963.824468 650.080397 960.102178 C646.479933 956.831975 644.512770 953.179509 644.000746 948.469365 C643.733778 946.014287 643.913771 942.913823 642.515822 941.288640 C638.061842 936.111150 628.268996 935.349126 622.409621 939.090520 C617.702712 942.095830 607.920851 938.939092 606.038100 933.707768 C605.459670 932.100774 604.794875 930.229131 605.092909 928.653325 C606.413588 921.670232 600.709059 915.350835 593.882155 914.381596 C589.040968 913.694402 585.522108 915.182195 581.511183 916.892888 C575.104384 919.625615 566.201796 912.360844 566.980177 905.317876 C567.137648 903.893132 566.487135 902.065862 567.162001 901.070073 C569.192580 898.074101 571.440016 895.329289 575.286940 894.080144 C580.052992 892.532719 579.418349 887.803105 579.953505 884.026921 C580.776991 878.216191 580.363783 874.133977 574.266676 870.922856 C568.994582 868.146367 565.341750 863.764104 566.997023 857.366643 C567.559157 855.193974 569.998732 853.355718 571.898329 851.737737 C573.021437 850.781072 574.809035 850.645635 576.225050 849.984990 C584.114394 846.304143 590.420180 852.214665 590.881606 860.389287 C591.128676 864.766667 594.240248 871.424992 598.033522 873.575322 C602.409804 876.056035 606.358717 874.798589 610.667067 873.123906 C614.368361 871.685307 618.067397 868.354558 622.598525 871.935796 C625.980544 874.608830 629.200819 876.698796 629.187025 881.941533 C629.175063 886.483342 630.398756 891.546086 634.760390 894.026860 C638.173171 895.967839 642.043776 898.627324 646.462172 895.195683 C647.991591 894.007756 650.285780 893.490422 652.290236 893.302983 C655.164931 893.034123 658.261366 892.769658 660.960646 893.549931 C664.970717 894.708989 667.428664 900.082890 673.177199 896.754643 C676.791823 894.661870 683.430800 888.889897 682.878371 885.146123 C681.975844 879.029546 685.201003 875.865178 689.646315 872.753789 C698.601088 866.486272 700.045912 854.557256 688.880080 848.965215 C684.335768 846.689275 681.895766 843.056035 681.886244 837.641057 C681.880507 834.362981 682.521559 830.154790 679.339247 828.125432 C674.146620 824.814092 669.565199 821.797307 670.821547 814.434392 C671.241957 811.970586 673.589613 806.273015 676.125319 805.663030 C679.999709 804.731023 685.482619 794.077458 683.836867 791.483586 C681.283278 787.458928 678.457411 783.501531 675.156935 780.085698 C671.802931 776.614629 670.213881 772.736882 670.804213 768.181584 C671.017409 766.535954 672.810317 765.074407 673.947890 763.578679 C674.447829 762.921452 675.014418 762.208196 675.717360 761.830754 C678.738661 760.208379 681.276930 757.568791 685.492384 759.775945 C688.933241 761.577458 692.002272 763.972783 696.945876 763.431035 C701.150526 762.970219 703.475356 761.324040 706.006056 758.799931 C708.851454 755.962041 706.106398 752.442693 707.112746 749.576177 C708.697218 745.062688 708.355849 740.932683 704.580092 738.278508 C699.038222 734.383122 692.592238 734.057561 688.468764 737.028935 C687.316664 737.859074 686.119399 739.420781 685.000502 739.370244 C678.990614 739.098637 673.709181 737.105107 670.845412 731.281560 C669.968886 729.499333 668.525282 726.839604 669.207411 725.670354 C671.043288 722.523381 673.391127 719.136235 676.420668 717.324162 C685.979201 711.606999 686.331557 698.809941 676.534743 692.859197 C667.794692 687.550481 668.675917 676.183293 677.946547 671.677983 C682.277724 669.573125 683.793044 665.758611 682.762831 662.186955 C681.113295 656.468083 684.056532 651.574345 687.288649 649.923955 C691.420790 647.814031 692.562453 644.901189 693.878737 641.526128 C694.608534 639.654668 694.957289 637.505742 694.914931 635.493779 C694.858473 632.810918 697.743849 628.561955 700.493056 627.993047 C705.643080 626.927312 708.263380 622.431767 707.442824 616.865361 C706.954421 613.552129 707.093275 610.045537 709.955092 607.603948 C712.616103 605.333745 715.356520 603.073979 718.366774 601.338200 C719.515212 600.675969 721.824782 600.964177 723.063429 601.714116 C727.367384 604.320134 730.850417 607.311101 736.979994 605.711186 C742.904005 604.164861 746.725783 600.947636 746.033034 594.282719 C745.894911 592.953618 745.656325 591.123784 746.365187 590.307988 C749.163161 587.088200 752.006483 583.744756 755.431776 581.279179 C758.847914 578.820195 761.470961 576.785283 760.079787 571.976506 C759.016188 568.300115 762.952650 559.888799 767.086928 558.771611 C770.371474 557.884038 774.643446 558.801030 777.923720 560.207463 C782.190260 562.036626 785.553481 562.796147 790.223158 560.700505 C793.745375 559.119817 797.041518 555.375615 802.707838 558.683904 C809.861769 562.860783 812.995802 565.304509 811.864699 573.397527 C811.288344 577.521855 813.341017 579.252324 816.139906 580.997258 C819.008986 582.785893 821.885085 583.301335 825.482924 583.280034 C831.530348 583.244084 836.966750 578.540715 836.000014 572.453923 C835.474379 569.144536 840.407301 562.162785 843.350844 559.823369 C847.407546 556.599309 850.707472 558.487126 854.418227 559.876408 C858.466628 561.392094 863.039748 563.206792 866.898817 561.056889 C872.123610 558.146184 876.805251 556.422124 882.249892 559.985600 C886.005324 562.443425 890.176955 561.755498 894.156142 560.936406 C899.531691 559.829778 902.573134 550.487309 902.024489 544.763615 C901.944472 543.929509 901.867506 542.671391 902.342055 542.280217 C904.575026 540.439397 907.084670 538.935368 909.328383 537.106145 C910.830336 535.881657 912.706679 534.524297 913.245314 532.849980 C914.042067 530.373235 913.630629 527.536198 914.037184 524.899358 C914.765089 520.177068 912.759779 517.939336 908.858717 515.560552 C905.568434 513.554204 901.344435 511.575749 901.838515 505.835790 C902.360487 499.771245 901.324721 494.059056 894.103407 491.422368 C889.094984 489.593663 887.426344 485.540898 888.864455 479.942601 C889.909743 475.873357 887.012953 472.341100 882.680800 470.819249 C878.288161 469.276128 874.055434 462.339879 875.174025 458.346593 C876.439894 453.828221 874.915907 450.245213 870.850661 448.489079 C864.167860 445.602239 861.326613 440.854649 861.990614 433.746617 C862.363478 429.754918 860.579909 426.987370 856.929274 425.439946 C851.718398 423.231175 848.126296 420.251134 850.954848 413.869817 C851.156142 413.415685 850.670973 412.682103 850.575148 412.067540 C849.776686 406.950505 846.109145 404.461003 842.088515 401.858006 C839.594374 400.243291 836.180861 397.136784 836.309645 394.878270 C836.919630 384.177190 834.246901 380.000859 824.452773 379.000005 C818.746291 378.416875 812.185622 383.026402 811.839430 388.289861 C811.152663 398.731267 811.016432 399.312352 820.683974 405.346410 C823.864882 407.331822 825.214796 411.087499 824.521925 414.889500 C823.765212 419.042302 825.726332 424.096623 829.352858 425.852879 C836.126051 429.133000 837.298109 431.036198 837.000014 438.270909 C836.766615 443.935033 840.165114 448.460423 845.677016 449.822362 C846.116408 449.930943 846.688551 449.884313 846.980605 450.149968 C851.250868 454.034734 850.081129 460.319219 849.013503 463.622441 C847.740248 467.561833 841.813551 470.363957 837.397414 472.705907 C836.001479 473.446172 832.836684 471.378270 830.732802 470.161046 C823.224806 465.817235 824.611220 465.858525 817.735365 469.870946 C813.316359 472.449651 807.593947 473.456365 804.230483 470.557347 C800.018446 466.926793 796.031325 467.747105 791.725783 469.774053 C786.340041 472.309575 784.724318 476.624852 784.905226 482.405309 C785.174452 491.005772 776.021803 497.636449 768.946059 493.842015 C765.189101 491.827306 760.400404 489.774632 760.064467 484.378270 C759.819899 480.449162 760.614455 476.741826 763.697157 473.716252 C766.837355 470.634313 770.235426 467.538792 772.339003 463.786748 C773.488783 461.735814 771.548842 458.174718 772.118422 455.535558 C773.968947 446.961369 783.248671 443.850957 791.306532 448.806493 C796.052626 451.725346 807.360243 449.455174 809.747023 444.506993 C811.040602 441.825261 810.214308 438.199407 811.098341 435.223454 C812.456618 430.650609 809.513869 428.024938 806.681227 426.438115 C800.458205 422.952184 797.825636 417.986882 798.001479 411.150395 C798.097975 407.395604 790.075697 399.461034 786.508498 400.052647 C783.222365 400.597630 779.622328 400.468297 777.377638 403.930303 C776.823683 404.784673 774.959792 404.955571 773.656752 405.128240 C769.086745 405.733891 765.340041 403.247228 762.419936 400.538884 C760.474928 398.735021 759.198073 394.915715 759.522902 392.228154 C760.207716 386.561528 758.344740 382.381383 752.848463 381.029027 C749.442213 380.190953 747.817580 378.226628 747.987807 374.719029 C748.060439 373.222539 747.959242 371.718327 748.007643 370.219884 C748.155653 365.633031 746.489821 361.316777 742.639357 359.416051 C736.534987 356.402745 733.552931 352.307469 733.901747 345.513860 C733.971571 344.152959 732.678297 342.761754 732.186842 341.325169 C730.486098 336.353825 724.226576 332.522618 719.797011 334.042180 C716.670912 335.114568 713.741530 336.769811 710.602736 337.791081 C709.045668 338.297643 706.982008 338.510289 705.551711 337.903355 C701.480055 336.175511 698.342665 332.754063 693.057631 333.362645 C689.487624 333.773747 681.346999 339.198277 682.123671 342.531163 C683.038832 346.457555 683.503004 350.027013 680.323012 353.233617 C678.630690 354.940068 677.561659 357.936925 675.624464 358.578038 C672.332167 359.667577 669.338881 361.809941 664.860426 358.812383 C656.072218 352.930180 646.185927 357.428044 644.230299 367.387395 C643.278395 372.235265 643.456007 377.850957 648.294203 380.441747 C651.982069 382.416600 656.477614 385.406133 661.258376 381.410252 C662.978651 379.972417 665.528029 379.393315 667.797499 378.797307 C669.096022 378.456242 671.122817 378.298741 671.914870 379.034612 C677.519179 384.241124 683.394850 385.114171 690.189345 381.416661 C693.197340 379.779698 696.542494 377.804845 700.088149 380.416661 C701.795973 381.674687 703.353407 383.135808 704.993056 384.487828 C706.377455 385.629338 708.340285 396.584050 707.413161 398.086766 C703.757094 404.012517 694.234572 405.990819 688.513747 402.014012 C685.393752 399.845158 681.850783 399.903417 678.622694 401.087071 C672.091933 403.481755 668.990675 408.207402 668.878432 415.472173 C668.731154 425.004521 658.397108 431.956761 651.606215 426.532140 C645.133925 421.361974 640.003920 423.808232 634.604201 426.195439 C631.495314 427.569890 629.214430 428.180180 626.566420 426.058446 C621.223647 421.777532 609.950514 422.694585 605.724196 427.775884 C603.307997 430.680882 603.667738 440.812932 606.498122 443.940953 C609.066847 446.779881 611.959792 449.322881 614.583022 452.115514 C618.394667 456.173436 619.423903 460.987737 617.260634 464.226048 C614.079787 468.987859 607.072951 472.979771 599.646010 469.381200 C596.366225 467.792088 592.946120 465.667638 588.270155 468.650975 C584.915724 470.791203 579.605421 470.223302 575.180067 470.147160 C573.473952 470.117803 571.638564 466.991032 570.145033 467.209508 C565.675124 467.863469 561.090102 467.680425 556.758009 470.301366 C554.378249 471.741185 549.367506 471.637639 547.208876 470.014470 C543.482436 467.212315 541.345351 462.726415 541.898207 457.352971 C542.331496 453.141484 539.014357 449.161229 534.832472 447.667577 C531.306471 446.408238 526.813124 439.132573 528.103346 435.788335 C529.772719 431.461186 527.137648 429.622105 524.726515 426.899053 C520.952895 422.637242 515.957289 424.124272 511.540785 423.205937 C508.560011 422.586125 501.045088 430.386540 502.100996 432.750249 C504.838728 438.878728 500.895216 442.282414 497.058363 445.267857 C491.886885 449.291783 488.210432 453.436864 488.838118 460.681676 C489.219405 465.082799 486.334761 468.343480 482.034712 470.025151 C480.747115 470.528752 479.221297 471.056432 478.436690 472.064885 C477.260085 473.577245 476.225905 475.448308 475.889052 477.304417 C475.450819 479.719273 476.156599 482.352971 475.656233 484.743047 C474.602736 489.775548 468.735884 494.074559 463.652632 494.000005 C457.396895 493.908269 451.366805 488.980626 451.071455 483.169957 C450.771132 477.261601 450.300948 472.808568 443.184218 470.017735 C438.367232 468.128789 435.005171 468.323399 430.944014 470.015996 C426.440627 471.892980 424.573012 475.398106 424.999739 480.198644 C425.141982 481.798985 425.980574 483.846440 425.295027 484.918309 C423.008864 488.492772 420.660780 492.064214 415.841658 493.090520 C411.203780 494.078252 410.354842 498.306523 410.706740 502.062993 C411.303847 508.437474 409.859267 512.184026 404.290144 515.201421 C400.193587 517.421025 398.227919 521.142888 399.174818 525.389531 C400.022994 529.193608 398.314589 531.655217 396.351210 533.957585 C394.758376 535.825444 392.248640 536.909245 390.152022 538.350163 C387.004775 540.513127 386.754927 543.880803 385.826399 547.253117 C384.300368 552.795354 385.626814 557.011113 390.472670 560.084294 C395.747298 563.429326 400.609419 563.110722 405.655287 559.864385 C411.559248 556.065862 416.836379 556.953740 420.413130 563.124577 C422.486220 566.701177 423.180495 571.067815 424.565810 575.054387 C427.331007 583.011907 436.450209 585.570744 444.267104 581.536443 C447.504012 579.865910 451.675063 579.853276 455.693221 581.863347 C460.813765 584.425115 466.254561 587.185185 471.549269 581.180791 C473.796462 578.632451 477.533492 578.618962 480.383223 581.033330 C486.262831 586.014592 492.174788 585.813542 497.706587 580.929204 C501.897017 577.229253 505.185774 579.870793 507.894637 582.199223 C512.144118 585.851811 519.232497 585.732243 523.095656 581.568669 C524.393935 580.169377 525.975844 577.982365 529.058669 580.340032 C534.317824 584.362126 540.359328 586.678716 546.904128 582.958073 C549.379225 581.550969 551.669264 580.841191 554.683974 580.819707 C560.983473 580.774724 568.264784 588.248052 567.000014 594.335820 C566.121046 598.566716 569.007155 602.586308 572.940688 604.628667 C576.049941 606.243108 579.487868 608.151189 579.082533 613.043401 C578.339980 622.006596 579.812331 625.562871 586.810011 627.841008 C592.271864 629.618962 592.383681 633.534734 592.710097 637.779607 C593.063185 642.369817 593.227492 647.021733 598.060866 649.549077 C599.348525 650.222478 600.997633 650.497014 601.949233 651.473027 C607.991896 657.670415 606.232558 665.998235 598.997511 670.407536 C593.089186 674.008305 591.405898 677.559270 593.514906 684.011601 C593.658339 684.450505 594.034987 684.910222 593.970046 685.305425 C593.149611 690.291814 580.783766 696.200200 576.244276 693.717351 C569.561415 690.062199 563.062758 691.023564 556.918166 694.734868 C554.674757 696.089909 553.250685 698.106450 553.795912 701.657475 C554.629225 707.083928 553.397536 712.540105 547.461379 714.952275 C541.908522 717.208623 539.859999 721.260564 539.973647 726.913213 C540.007155 728.576543 540.134596 730.419011 539.517470 731.883855 C536.498061 739.051030 528.750136 741.074040 522.195021 736.739446 C518.178114 734.083135 512.798048 733.661931 509.713728 736.263677 C503.933730 741.139531 499.266982 740.744450 493.935194 736.467290 C493.473952 736.097234 492.830153 735.904118 492.239333 735.754460 C488.634505 734.841313 484.960402 734.958806 482.172133 737.457768 C477.611922 741.544865 476.650343 741.645390 471.587416 738.181279 C467.729384 735.541570 462.902724 734.123418 458.769453 736.210942 C454.584151 738.324773 450.928450 739.227055 446.283308 738.337773 C442.096449 737.536382 436.253767 731.280461 437.173201 727.326787 C438.620711 721.102605 437.616530 718.878850 431.695174 715.195195 C428.375197 713.129887 419.775313 713.150212 417.270644 715.229314 C412.378951 719.289983 403.102705 716.400456 401.030440 710.100835 C400.494704 708.472173 400.053603 706.721074 400.049300 705.024968 C400.032362 698.341496 396.870589 693.688542 390.935957 691.054875 C386.506728 689.089360 384.709303 685.900273 384.985518 681.237737 C385.077437 679.685979 385.380629 678.004399 384.934493 676.587712 C382.946242 670.273991 375.197554 667.322881 368.409285 669.981633 C361.278029 672.774785 361.443770 678.936833 360.913405 685.055058 C360.521651 689.573857 363.437697 692.048772 366.383498 693.603642 C370.403639 695.725591 373.109084 697.651677 372.837691 702.804204 C372.615675 707.019475 373.754042 711.330632 369.347395 714.174016 C368.016921 715.032597 366.880965 716.224431 365.494460 716.958867 C359.179854 720.303594 358.938887 730.700871 363.438918 734.960515 C365.737807 737.136540 367.963820 739.393010 370.159529 741.673955 C375.111617 746.818181 375.075362 751.251775 370.049056 756.439153 C367.845747 758.713017 365.489821 760.843694 363.354811 763.178166 C358.094466 768.930119 360.547896 780.088689 367.622450 782.877568 C371.610426 784.449590 374.406386 791.347722 373.352644 795.282597 C372.265700 799.341679 369.426070 801.831120 366.855971 804.709477 C365.016280 806.769719 362.946333 808.892766 361.938002 811.377019 C358.826094 819.043828 360.500594 823.444951 367.857405 828.095525 C372.600630 831.093938 376.547408 834.819524 374.377119 841.768987 C373.261458 845.341557 375.839949 847.938908 379.169234 849.837407 C381.412917 851.116826 383.762068 853.087895 384.828688 855.335820 C386.199782 858.225346 387.223067 861.826970 386.792494 864.896916 C386.138594 869.559392 389.055312 871.549321 392.009596 872.236455 C396.152785 873.200139 401.512648 874.207219 404.827315 872.399663 C412.567091 868.178960 423.243086 872.389104 423.897841 881.406072 C424.370345 887.913701 425.435713 893.791020 432.137862 896.579106 C439.745772 899.743901 438.690260 908.978825 432.907881 913.196355 C429.221114 915.885381 424.896040 920.262029 424.472670 924.264409 C423.830489 930.335515 422.337874 935.287419 417.630690 938.663213 C413.635237 941.528813 411.704817 944.495366 412.925093 949.433659 C413.403426 951.369267 412.307539 953.962163 413.225996 955.460332 C414.765242 957.971074 417.009718 960.460942 419.561873 961.845769 C423.705275 964.094182 425.184584 967.629033 424.875777 971.606267 C424.266188 979.457646 425.032668 981.416692 432.180800 984.999944 C436.181532 987.005437 439.214888 992.504826 437.852461 996.942937 C436.915144 999.996343 437.969649 1001.725713 439.907057 1003.349370 C442.610823 1005.615422 445.804152 1007.367986 448.225996 1009.881719 C451.125410 1012.890996 451.699171 1022.174565 449.684370 1024.815556 C447.646590 1027.486699 436.771742 1030.650884 433.906325 1029.406377 C426.869215 1026.350102 422.778883 1019.167058 424.000014 1012.009892 C424.555251 1008.755498 422.976851 1007.044194 420.068251 1005.378301 C417.188521 1003.729009 414.625166 1001.283208 412.488753 998.715947 C411.768324 997.850346 413.122969 995.499638 412.920424 993.905034 C412.609206 991.454289 412.481368 988.431401 411.006758 986.794133 C408.146437 983.618108 404.180556 981.459538 401.138869 978.413884 C399.963728 977.237309 399.394850 974.682134 399.692061 972.951177 C400.634230 967.464055 398.970747 962.588567 393.963087 960.613469 C388.813033 958.582219 386.723738 955.573308 386.863356 949.904240 C387.082167 941.018376 378.173293 934.093327 370.206923 936.293095 C364.947524 937.745427 358.670058 945.515019 359.107619 951.056584 C359.605910 957.368474 355.133589 960.378117 350.974410 962.030217 C347.736464 963.316350 343.130873 962.924443 339.660841 959.338933 C332.611220 952.054631 333.325667 943.755071 342.319106 939.331914 C346.574812 937.238957 347.379317 933.723027 346.859877 930.124699 C345.839064 923.053349 349.197798 918.938603 354.885542 916.021428 C361.564253 912.596135 363.962691 905.031438 360.804244 898.224858 C357.570845 891.256719 346.467604 889.220281 340.770888 893.822026 C337.212386 896.696538 333.822798 897.549931 330.087233 894.554265 C327.535902 892.508183 324.877272 890.502507 322.754988 888.055303 C321.741896 886.887151 321.176497 884.534245 321.602644 883.064214 C322.865370 878.708440 321.940443 875.330144 318.255385 872.826604 C316.987593 871.965276 315.359450 871.652348 313.942519 870.989201 C309.625929 868.969121 307.599654 864.699956 308.615218 859.884770 C309.643294 855.010198 306.970931 850.487737 302.238722 848.993596 C296.479048 847.175176 293.734724 841.449956 295.121657 836.966863 C296.666792 831.972234 294.253432 828.973821 290.579756 827.293157 C285.663557 825.044011 283.796309 821.266301 284.124464 816.580327 C284.555586 810.423222 281.458113 806.896550 276.677687 804.202886 C271.274947 801.158635 268.852522 796.214909 270.091383 790.408696 C270.607954 787.987615 269.197157 785.344792 266.959029 784.540959 C261.251906 782.491277 257.605208 777.848760 258.107588 771.850652 C258.643385 765.453740 255.351027 761.851445 250.441695 759.011601 C245.751158 756.298222 243.365675 748.445866 246.381834 744.233586 C248.513655 741.256352 251.056120 738.484319 253.796294 736.049443 C260.023573 730.515935 259.276503 720.220525 252.132597 716.000066 C241.301497 709.601262 240.947478 700.417668 251.255339 693.244756 C259.624220 687.421147 260.616347 677.172124 252.751036 671.599797 C250.237853 669.819219 246.786848 667.997258 242.507307 669.692754 C238.238799 671.383794 233.547896 675.242436 228.702010 671.876408 C225.093062 669.369573 221.218443 666.235051 219.404784 662.449407 C217.728850 658.951238 219.012831 654.342412 222.914610 651.588323 C225.126997 650.026738 227.444579 648.598332 229.552199 646.907353 C235.148650 642.417241 233.852004 631.446782 227.288298 626.996159 C222.536711 623.774297 217.196227 620.475957 218.211516 613.838994 C218.799529 609.995183 217.597365 607.790532 215.128874 605.665532 C212.454665 603.363347 209.340865 601.488469 207.025237 598.887395 C205.826552 597.540898 205.125365 594.791386 205.617308 593.084477 C206.957045 588.435796 205.569975 585.141118 201.938231 582.449956 C197.633742 579.260381 190.381819 578.215764 187.225844 580.274297 C182.336501 583.463323 174.250105 582.912602 170.395766 578.762029 C168.864806 577.113347 166.703841 574.229558 167.232192 572.789555 C170.251692 564.559758 165.302519 561.380681 159.503066 557.653874 C156.906432 555.985234 154.295531 552.005071 154.315108 549.091496 C154.354216 543.270757 158.187209 538.904973 163.419936 536.074162 C166.660643 534.321050 169.440596 536.448613 172.163573 537.404057 C177.634001 539.323613 179.772704 543.711797 179.022017 549.886052 C178.947951 550.495244 178.976866 551.286992 179.304564 551.747197 C181.239943 554.465764 183.196227 557.177739 185.301024 559.765386 C188.278975 563.426457 192.438597 563.300481 196.261885 562.112187 C203.376952 559.900823 205.090422 554.030949 206.166731 547.256230 C207.322630 539.980534 202.127348 538.061589 197.760344 535.360417 C193.958479 533.008855 191.734328 530.435613 192.830229 525.561284 C193.706984 521.661687 192.910994 517.308415 188.980269 515.808049 C186.039641 514.685613 184.359114 512.744817 182.361983 510.844334 C179.495924 508.117009 178.050093 505.364812 180.070631 501.086644 C180.886351 499.359532 179.500410 494.551610 178.448348 494.330907 C173.464842 493.285680 170.786635 490.014836 168.708342 486.066289 C167.787123 484.316106 167.249312 481.903050 167.643614 480.022832 C168.345168 476.677342 168.304335 473.871892 165.294692 471.837773 C163.216322 470.433110 160.397353 469.727971 158.941863 467.891820 C156.809737 465.202000 154.081129 461.672337 154.291502 458.689977 C154.870848 450.476628 165.980101 444.326177 172.966643 448.181737 C176.188521 449.959782 179.958235 453.342870 180.650984 456.599858 C182.447310 465.045262 182.395644 464.774388 185.708281 469.485844 C188.966597 474.119969 193.483870 473.718205 196.799910 472.238713 C200.443678 470.613042 203.001234 466.526280 205.947051 463.430882 C206.116209 463.253178 205.269484 462.321690 205.323531 461.784062 C205.543578 459.594975 205.254210 456.933995 206.400084 455.348424 C208.616850 452.281041 211.272505 449.135198 214.471068 447.254735 C221.276381 443.253789 221.647002 429.714879 214.537245 426.202489 C208.285704 423.114079 205.649199 418.787297 205.865401 411.818303 C206.042281 406.117070 205.243956 405.720311 200.864134 404.635838 C196.454192 403.543919 191.925322 395.950383 193.000014 391.450139 C194.285719 386.066258 191.390852 381.265904 186.247328 380.252660 C183.334532 379.678868 178.336256 373.830968 179.198729 371.412755 C181.326918 365.445653 178.815138 361.402074 174.400374 357.895635 C172.640089 356.497502 170.711333 355.249181 169.191191 353.622502 C164.377318 348.471166 166.580550 340.707829 173.511473 337.988530 C178.677550 335.961644 181.414275 330.051640 181.588301 323.863408 C181.672408 320.873418 183.483900 316.994817 185.811217 315.238530 C188.828566 312.961491 192.913405 311.248265 197.205229 313.659856 C206.828871 319.067510 220.243208 315.236760 219.701735 301.756719 C219.513045 297.059331 217.194136 293.143926 213.003951 291.100774 C208.720549 289.012303 204.180617 287.726415 199.494887 290.925420 C192.485915 295.710484 183.426527 292.109074 181.506560 284.006535 C180.152342 278.291692 182.994811 270.749974 188.355467 268.421758 C190.992766 267.276341 195.572829 266.866551 197.434157 268.382542 C202.724181 272.691075 207.664671 271.546758 212.996931 269.494634 C217.099196 267.915868 220.975600 268.375707 225.039076 270.001714 C227.886504 271.141087 231.088393 271.623937 234.160109 271.758702 C234.702376 271.782475 235.284728 268.602818 236.026183 266.983861 C236.862135 265.158482 237.716811 263.293095 238.886687 261.679540 C241.232359 258.444371 244.159743 255.585088 246.196089 252.181249 C250.194518 245.497670 256.299178 243.736470 263.241225 247.718312 C264.732832 248.573872 266.307326 249.834004 267.883620 249.896352 C274.191786 250.145879 279.390303 247.272481 282.896803 242.311177 C286.731764 236.885182 284.382124 227.595708 279.289687 225.059529 C273.013899 221.934041 266.609389 221.384267 260.198683 225.188649 C258.513991 226.188420 256.193983 227.024907 254.375304 226.713277 C249.790846 225.927693 245.133711 220.049184 245.093260 214.896123 C245.054823 209.999699 247.031004 205.958348 251.829955 203.605962 C256.425856 201.353108 258.473769 196.351506 258.119521 191.273549 C257.931227 188.574132 258.025099 184.823308 259.645827 183.234639 C263.554213 179.403508 268.512038 176.958791 274.460249 178.982991 C278.524428 180.366048 284.674025 189.174168 283.977431 193.015172 C283.092207 197.896169 284.850203 201.924016 289.078627 203.821050 C292.520522 205.365224 296.678236 205.872060 300.507399 205.829747 C303.978651 205.791386 308.529005 198.770375 307.955733 195.014775 C306.971327 188.565663 311.278212 181.806645 314.316176 181.318150 C320.530592 180.318791 321.955214 176.252278 321.987441 170.978764 C322.022810 165.188329 322.129500 159.812428 315.387160 156.522679 C311.429915 154.591832 307.594160 150.353124 308.160170 145.296025 C309.172804 136.248326 320.297408 131.796468 328.246779 136.724446 C332.288649 139.230077 336.872420 140.021230 340.483473 136.766271 C344.173628 133.440053 347.438857 133.008412 351.781569 134.916310 C354.664870 136.183049 357.854323 136.970616 360.985671 137.409612 C367.451460 138.316014 372.129103 135.584508 373.724684 129.660619 C374.989394 124.965100 373.519759 115.096646 368.006422 113.092084 C363.426497 111.426892 358.684950 110.408673 353.719771 112.683598 C346.974379 115.774175 338.194624 112.723134 335.143721 106.643674 C332.671187 101.716779 337.845900 92.938474 343.986983 90.399548 C346.750288 89.257092 348.478865 89.880422 350.659254 91.119229 C356.616774 94.504086 362.647627 95.047063 368.553114 90.986516 C372.340437 88.382405 375.601180 88.433385 379.319075 91.560361 C381.127058 93.080975 384.357405 94.035443 386.634535 93.605962 C389.936720 92.983128 393.071394 91.068547 396.060927 89.332036 C398.077040 88.160947 398.965681 87.091969 401.380598 89.566289 C406.199355 94.503507 413.755354 94.858182 419.993025 90.910489 C423.931349 88.417973 427.343062 88.508649 431.220900 90.639127 C433.134779 91.690610 435.299025 92.533131 437.444411 92.871510 C444.744460 94.022908 449.889327 88.798604 449.025099 81.439145 C448.851363 79.959561 448.522078 78.223775 449.088973 76.982770 C450.839949 73.149922 448.366774 71.607327 445.798994 70.011548 C444.617232 69.277150 443.349898 68.681867 442.136244 67.997144 C438.507002 65.949658 435.449446 57.704594 437.959731 54.782678 C441.656538 50.479699 446.202559 46.897706 450.486525 43.121693 C450.890791 42.765366 452.247939 42.919499 452.751814 43.334950 C457.796339 47.494309 463.912062 50.804013 463.177840 59.075604 C462.970686 61.409230 464.484328 64.237660 465.952712 66.312627 C470.044356 72.094403 476.078047 72.762196 481.969588 70.220563 C484.749129 69.021466 488.181227 67.537991 488.277907 62.492463 C488.408431 55.678063 490.496108 49.242074 497.719771 45.569802 C502.902754 42.934934 503.926497 38.924523 502.607619 33.114495 C502.476302 32.535981 501.993971 31.894204 502.135024 31.418328 C504.096327 24.802699 514.219374 20.464978 519.997206 24.069646 C525.200026 27.315522 530.282057 27.384532 535.586745 24.872872 C537.729323 23.858447 543.266554 23.839385 545.274489 24.715381 C549.937880 26.749864 555.038649 28.309121 559.629713 25.570525 C562.273024 23.993754 564.368910 22.556609 567.637648 22.755643 C570.632338 22.937985 577.410292 27.972125 579.330092 30.190509 C583.170973 34.628705 579.353285 37.503461 577.902174 40.633168 C574.709731 47.518597 566.614821 49.884435 560.620863 46.120850 C555.275710 42.764649 547.480788 43.700784 542.824355 47.523202 C539.104079 50.577111 541.388258 54.149541 540.992934 57.493447 C540.190443 64.281712 541.580763 66.583539 548.272292 70.546307 C552.456984 73.024495 557.169142 72.437901 560.912733 68.601277 C563.036147 66.425130 565.473341 66.249402 568.436903 66.909627 C572.865065 67.896161 576.622328 70.530797 581.702589 70.276852 C587.798293 69.972142 591.278639 68.025578 592.290541 61.743909 C592.961989 57.575391 593.767104 53.342156 595.251479 49.417436 C596.493788 46.132932 604.880324 44.785066 609.141554 46.633965 C612.594801 48.132310 615.757338 49.082353 619.967177 48.243539 C628.289137 46.585397 633.074721 42.848431 631.790724 35.381009 C630.783827 29.525523 635.469984 27.499440 637.919936 24.332600 C638.751112 23.258199 643.363600 20.847419 647.438734 23.459695 C650.198988 25.229125 652.921400 28.077170 657.658644 27.432481 C663.273695 26.668330 669.697646 21.310000 669.067641 15.678588 C668.919936 14.358036 669.711317 12.956054 669.912733 11.568620 C670.671462 6.341824 674.169081 3.061393 678.000014 0.000005 M786.500014 625.000005 C784.303236 625.196782 782.007765 625.055547 779.930678 625.662236 C775.870680 626.848027 772.848036 628.655095 772.402602 633.929814 C771.417921 645.586553 771.220473 645.802495 780.568861 651.016972 C783.553053 652.681401 786.285658 654.144048 785.189955 658.831792 C784.314711 662.576421 785.245680 666.566655 788.812819 669.395635 C791.876662 671.825505 794.911818 672.356267 798.916457 672.231389 C806.520033 671.994450 811.893996 667.806340 812.000807 660.476323 C812.027663 658.630864 811.814040 656.458440 812.682997 655.025823 C813.940566 652.952702 815.864943 651.092656 817.896681 649.722783 C821.487013 647.302129 825.025649 646.357304 829.230299 649.521916 C834.292006 653.331548 840.266005 652.533818 845.550795 649.781804 C849.860182 647.537663 850.327650 642.849248 849.909316 638.564519 C849.348525 632.820744 852.923781 628.962651 856.270644 625.745122 C858.162733 623.926152 863.107863 623.549260 865.786391 624.664311 C870.493544 626.623906 874.067336 629.583012 880.153090 627.853459 C888.783156 625.401006 891.912733 613.792302 888.951613 608.008366 C886.465895 603.153020 873.336745 600.054143 869.077773 603.616582 C864.929945 607.085942 861.403273 606.868413 856.889662 604.511052 C845.515150 598.570195 836.506422 605.019353 836.225844 615.096501 C836.089919 619.976933 834.482314 622.793279 830.583998 624.918095 C829.089186 625.732915 827.062331 626.199284 826.215468 627.456181 C823.794142 631.049992 820.887099 627.658269 820.184767 627.033025 C814.322279 621.814031 811.587477 621.447514 804.797865 625.640935 C801.191847 627.867986 797.523085 630.123174 793.110121 626.762151 C791.457655 625.503606 789.058608 625.225285 786.500014 625.000005 M541.000014 422.500005 C542.512343 423.666661 544.189711 424.673680 545.503371 426.032475 C548.432021 429.061955 553.392287 432.134770 553.588942 435.425176 C554.202406 445.687138 558.367445 450.987859 567.968337 450.468297 C575.792372 450.044927 583.633986 437.476140 579.379591 431.216832 C576.874831 427.531712 572.174757 425.406773 568.858839 422.173222 C567.425612 420.775578 565.838698 417.990056 566.316298 416.456059 C568.037611 410.927983 566.330031 406.818059 562.090041 403.703648 C557.917921 400.639165 553.153151 399.722691 548.181166 402.004155 C540.033644 405.742772 538.169020 410.832280 541.000014 422.500005 M478.000014 669.500005 C483.712355 673.539067 490.390944 674.438908 496.005660 671.052190 C501.007124 668.035222 504.442213 668.643926 508.884871 671.190740 C510.856886 672.321233 513.699416 672.757329 515.968275 672.393926 C523.252821 671.227361 527.416457 666.398930 528.000014 659.263127 C528.429335 654.012395 525.208266 648.584782 520.882094 648.071416 C515.834181 647.472234 510.869399 646.819829 505.787703 649.369206 C503.311568 650.611333 499.801924 651.563054 496.461989 648.388554 C494.153304 646.194280 489.434615 644.470708 486.580458 645.287907 C476.501662 648.173283 472.448012 658.885747 478.000014 669.500005 M1094.500014 701.000005 C1094.537001 703.370305 1094.147841 705.843266 1094.689711 708.091863 C1096.414687 715.251286 1101.459120 718.742986 1108.391005 718.000005 C1115.280653 717.261479 1120.854628 712.304692 1119.822279 706.615910 C1118.716078 700.520940 1121.765761 696.700322 1125.814101 693.974065 C1130.418593 690.873174 1135.101576 688.661321 1132.009047 681.938481 C1131.950331 681.810796 1132.010634 681.617680 1132.042372 681.460576 C1133.134901 676.022649 1129.006239 670.143254 1122.792494 668.292485 C1119.657851 667.358830 1110.287123 672.086125 1109.030043 675.373235 C1108.204604 677.531743 1106.658827 680.087041 1107.193129 681.964543 C1108.667860 687.146794 1106.281386 689.608708 1102.429091 692.271794 C1099.245131 694.473027 1096.782362 697.717717 1094.500014 701.000005 M940.000014 81.500005 C940.679091 85.583684 938.115797 88.573514 934.017897 90.601872 C931.455824 91.870061 929.399428 94.557462 927.718398 97.019269 C927.011427 98.054669 928.264357 100.243459 927.923171 101.748525 C926.944594 106.065717 927.549452 110.376912 931.240553 112.436688 C935.679579 114.913846 941.364699 115.233594 946.127882 114.040120 C951.326796 112.737470 952.202223 106.455991 952.553053 102.340306 C952.874281 98.572316 954.372328 96.547238 956.362257 94.097630 C959.632155 90.072469 965.411147 88.469113 966.531996 82.198583 C967.168654 78.636418 966.309767 72.655141 963.076918 70.568761 C959.062819 67.978200 954.738356 67.024144 949.946120 67.398564 C943.949538 67.867078 940.610304 71.643002 940.948012 77.918988 C940.993239 78.759885 940.333327 79.638730 940.000014 81.500005 M450.000044 658.500005 C450.080977 656.580937 450.883681 654.287419 450.116255 652.808537 C447.010909 646.823979 437.448256 643.416814 432.162123 646.000005 C426.080763 648.971806 422.426405 659.106877 424.909377 665.468816 C426.515913 669.585210 429.532637 670.790227 433.458876 672.565312 C438.781416 674.971623 442.469313 673.401799 446.000655 670.856023 C449.739363 668.160771 452.358992 664.217656 450.000044 658.500005 M412.500014 634.000005 C411.992598 632.492619 411.860915 630.674931 410.915083 629.529668 C405.863326 623.412785 398.089522 621.823918 391.766982 625.849126 C387.951216 628.278508 386.300642 631.610661 386.326735 636.815617 C386.352217 641.899358 386.337660 646.530827 390.810317 649.012334 C394.121199 650.849431 398.078352 654.573918 402.444777 650.165593 C402.977187 649.628117 404.533919 650.165471 405.160536 649.650517 C407.866133 647.427312 411.071852 645.392339 412.771162 642.508489 C413.958388 640.493657 413.000014 637.214421 412.500014 634.000005 M428.500044 428.000005 C428.852919 427.352910 429.075056 426.277226 429.578505 426.123631 C436.063277 424.145177 440.496809 417.324407 438.972243 411.472203 C437.380568 405.362431 428.224806 399.539739 422.505476 400.999974 C416.594527 402.509160 410.937148 408.878056 410.999983 413.952458 C411.061537 418.922490 415.595625 424.312077 421.327254 426.167119 C423.368758 426.827794 425.441542 427.391820 428.500044 428.000005 M468.000014 449.500005 C473.817519 446.274876 476.825484 440.800572 475.977126 434.745030 C475.665999 432.524327 475.629469 430.015508 474.532942 428.203954 C471.874495 423.812047 464.969862 422.489323 458.810408 424.689519 C453.094283 426.731419 450.938826 429.691075 451.001326 435.443028 C451.090743 443.672521 453.967604 447.489476 459.572066 448.992650 C462.121413 449.676366 464.851759 449.685094 468.000014 449.500005 M865.000014 708.500005 C866.211440 707.955205 867.470046 707.488591 868.599257 706.807378 C868.861525 706.649114 868.682875 705.759953 868.707106 705.207097 C867.585219 705.857610 866.461195 706.504521 865.344252 707.163335 C865.209975 707.242558 865.113844 707.386174 865.000014 708.500005 M1072.000014 748.500005 C1072.333388 748.855412 1072.667983 749.209782 1072.999648 749.566655 C1073.443129 750.043401 1073.884657 750.522099 1074.326918 751.000005 C1074.293471 750.575505 1074.410536 750.040227 1074.195937 749.749089 C1073.718642 749.101262 1073.075453 748.575566 1072.000014 748.500005 M533.000014 703.500005 C533.045119 703.000005 533.090224 702.500005 533.135329 702.000005 C532.789442 702.865910 532.443556 703.731816 532.097670 704.597661 C532.565077 704.398442 533.032546 704.199223 533.000014 703.500005 z"/><path class="selected"  fill="#000000" opacity="1.000000" stroke="none" 
 	d="
M656.750014 1007.750005 C663.231886 1008.225896 669.784865 1003.063847 669.451979 995.588567 C669.283644 991.809209 671.955580 987.107976 674.759840 984.180547 C678.828993 979.932683 682.952223 980.588200 689.032851 984.532842 C694.661879 988.184514 699.144423 987.347600 704.147902 982.939519 C705.682265 981.587834 709.873000 981.062749 711.308546 982.164311 C717.723036 987.086369 723.712050 986.256413 730.583632 983.258305 C733.193190 982.119695 737.344679 982.873540 740.151686 984.162358 C746.480421 987.068303 750.582716 987.198064 755.689223 982.727788 C758.264418 980.473515 760.517592 980.656499 763.033400 982.524785 C765.470595 984.334844 768.281508 985.787175 770.301955 987.975041 C772.651625 990.519292 775.491408 993.021245 773.187025 997.573979 C771.858717 1000.198247 778.011855 1007.130803 781.278029 1006.901799 C785.407668 1006.612248 789.706129 1006.199468 793.539748 1004.780583 C800.195815 1002.317143 809.154189 1005.584966 811.544447 1012.044438 C813.148879 1016.380193 810.192885 1024.055058 806.040297 1026.476933 C804.129836 1027.591313 802.402296 1029.095342 800.389845 1029.942876 C796.257094 1031.683232 796.165175 1036.194219 796.556166 1038.661870 C797.460951 1044.373174 795.232008 1047.821782 790.715407 1049.566533 C786.023268 1051.379033 784.616591 1054.609258 785.084914 1058.818730 C785.861037 1065.795781 781.292555 1069.733891 776.810866 1073.276494 C775.338759 1074.439946 771.281752 1073.673589 769.200026 1072.445195 C764.898756 1069.907231 760.376906 1069.717290 755.856032 1070.120488 C751.869582 1070.475957 746.827650 1076.960454 747.138747 1081.791875 C747.604689 1089.026738 743.860426 1093.053471 738.124587 1095.972173 C733.676283 1098.235722 733.069655 1102.313359 733.058608 1106.494389 C733.041945 1112.772099 728.535963 1118.944219 722.774428 1120.000127 C718.938734 1120.703008 710.838026 1114.736455 708.936964 1110.240727 C707.585707 1107.045049 707.754713 1103.559819 706.188246 1100.362309 C703.348341 1094.564946 700.086562 1092.322759 693.898390 1092.995610 C686.331679 1093.818486 680.873488 1100.106084 682.062941 1108.826421 C682.287245 1110.470586 679.724074 1112.751225 678.070937 1114.348760 C672.210036 1120.012700 669.676161 1119.863530 662.853774 1115.527470 C659.176344 1113.190312 654.805373 1113.400151 650.865309 1115.669316 C648.831007 1116.840825 646.893324 1119.334599 644.972914 1119.274907 C642.194289 1119.188603 639.380080 1117.508305 636.743361 1116.184697 C631.801527 1113.703984 631.058485 1108.521733 631.582289 1104.252202 C632.124098 1099.835942 629.614882 1098.202275 627.337050 1096.043828 C624.677138 1093.523198 621.119032 1091.747319 619.071974 1088.854619 C617.703078 1086.920415 618.135390 1083.608647 618.034316 1080.902959 C617.862929 1076.314946 614.249098 1072.826054 610.289626 1071.115483 C604.344557 1068.547124 599.950270 1072.328618 594.988112 1073.612065 C589.303236 1075.082402 584.022292 1073.097173 582.070143 1067.661137 C580.758254 1064.008061 580.273451 1060.064946 579.096083 1056.353886 C578.572768 1054.704594 577.548720 1052.951909 576.238234 1051.866338 C572.961562 1049.152226 568.157301 1047.902348 566.928847 1043.282597 C566.159071 1040.387700 566.649611 1037.177861 566.304579 1034.140141 C566.154982 1032.822148 565.631667 1031.296513 564.753432 1030.354009 C560.580336 1025.875371 552.484328 1025.743535 546.751112 1028.442021 C543.136488 1030.143559 538.887343 1029.848637 534.672194 1027.473760 C530.032423 1024.859502 524.615614 1025.458135 519.651442 1027.845830 C513.772963 1030.673467 504.119154 1027.909795 502.730421 1021.754765 C501.902266 1018.084416 501.848158 1012.779240 505.334273 1009.209599 C507.617506 1006.871526 509.741652 1005.029912 513.719069 1004.684514 C518.793166 1004.244023 522.682753 1008.278630 527.588026 1007.007817 C530.766859 1006.184270 533.959303 1005.410771 537.156447 1004.661137 C541.615126 1003.615849 545.526930 1004.447820 549.612318 1006.848637 C553.516982 1009.143376 558.071547 1008.323979 561.339491 1005.033147 C565.457655 1000.886296 569.075636 1002.511968 572.752211 1005.282170 C579.433974 1010.316777 588.973402 1006.287419 591.628310 1000.646123 C592.921095 997.899053 592.506789 994.375432 593.020705 991.228642 C593.767714 986.654057 600.574171 981.725224 605.081007 982.637456 C608.368056 983.302800 612.260695 983.551152 614.648390 985.499150 C618.518080 988.656194 621.532546 986.212224 624.198805 984.853764 C632.826979 980.457768 636.306593 980.809087 641.895766 988.663823 C643.262343 990.584233 643.700514 993.393132 643.923537 995.851811 C644.385634 1000.947575 647.186476 1005.293950 651.673354 1006.811833 C653.237257 1007.340886 654.888625 1007.611394 656.750014 1007.750005 M639.500014 1029.000005 C637.185561 1028.018926 634.944350 1026.473760 632.543044 1026.162236 C625.314467 1025.224492 619.075575 1030.545903 617.656203 1035.821782 C616.272536 1040.964482 619.947157 1049.040288 624.623732 1050.876225 C628.965956 1052.580937 631.724501 1058.194341 631.127821 1062.652593 C630.822585 1064.933598 631.093031 1067.978032 632.404372 1069.667729 C637.542250 1076.288457 644.502638 1076.634282 651.604262 1072.152104 C654.481825 1070.335942 658.203749 1069.013432 661.868300 1072.218877 C666.123305 1075.940801 674.018141 1075.535527 678.133864 1072.200444 C679.730299 1070.906865 682.076613 1068.387090 685.413405 1071.623174 C690.647292 1076.699223 697.322218 1075.765630 703.363295 1072.874638 C706.458083 1071.393559 708.648695 1068.763554 707.174025 1064.394658 C706.567519 1062.598027 707.221571 1059.611333 708.449782 1058.096074 C713.059523 1052.409306 719.888747 1048.747441 721.328261 1040.256963 C721.989699 1036.355840 721.058302 1033.603276 719.375929 1031.073369 C715.832533 1025.745000 706.835829 1025.152470 700.096632 1028.457036 C696.183669 1030.375737 692.838332 1031.288945 689.043349 1027.743779 C685.784438 1024.699345 678.991896 1025.168828 675.204909 1028.429814 C671.748610 1031.406133 668.478468 1030.311772 665.289626 1028.710698 C656.891249 1024.493657 654.893141 1023.536626 646.679335 1029.689336 C644.847914 1031.061040 642.337965 1031.217412 639.500014 1029.000005 z"/><path class="selected"  fill="#000000" opacity="1.000000" stroke="none" 
 	d="
M741.000014 448.000005 C736.735487 444.264928 732.055006 443.893254 727.908461 447.000035 C721.666457 451.676793 713.893813 449.742558 709.978163 442.436406 C708.818678 440.272984 706.554823 437.196935 707.268324 435.816625 C709.394789 431.703008 711.132765 427.096654 716.141982 424.855687 C719.797072 423.220555 722.589491 423.356053 725.919692 425.323705 C731.110121 428.390477 736.495924 428.591130 741.965956 425.586553 C746.975600 422.834813 751.559523 423.339360 755.599318 427.219396 C757.408583 428.957097 759.492873 431.209203 759.864027 433.486699 C760.811659 439.301946 758.754164 444.201695 753.285719 447.253636 C752.149001 447.887975 751.269179 448.979100 750.137709 449.626836 C746.842970 451.513097 743.994276 450.592046 741.000014 448.000005 z"/><path class="selected"  fill="#000000" opacity="1.000000" stroke="none" 
 	d="
M547.000014 1096.000005 C549.374953 1097.875005 551.396498 1099.631230 553.055739 1101.680791 C553.761244 1102.552251 553.965407 1104.039678 553.956801 1105.243901 C553.913222 1111.367192 547.357924 1119.023076 541.480360 1119.980351 C538.425124 1120.477910 528.613600 1112.707524 527.982497 1109.415532 C526.816054 1103.330937 528.013747 1098.478398 533.958144 1095.237187 C537.672926 1093.211797 542.365858 1093.143071 547.000014 1096.000005 z"/><path class="selected"  fill="#000000" opacity="1.000000" stroke="none" 
 	d="
M813.000014 491.000005 C815.010207 492.176823 816.378188 494.049901 818.058546 494.392949 C822.207411 495.239873 822.365065 499.272313 823.640517 501.730657 C824.615858 503.610600 822.764906 507.411198 821.403822 509.945409 C819.210036 514.029912 812.073317 517.238164 808.309706 515.654179 C803.398024 513.587041 799.213515 510.222264 798.059035 504.609990 C796.943251 499.186192 805.662123 491.131413 811.446669 491.894994 C811.753066 491.935429 812.146864 491.313542 813.000014 491.000005 z"/><path class="selected"  fill="#000000" opacity="1.000000" stroke="none" 
 	d="
M507.750014 1472.250005 C501.477675 1470.212651 502.131209 1464.730107 502.387770 1460.658208 C502.750838 1454.895268 499.393782 1452.945805 495.425307 1450.943852 C490.899764 1448.660649 489.220686 1445.645757 489.712019 1439.994634 C489.960982 1437.131230 487.565962 1433.751225 485.686476 1431.083745 C484.276595 1429.082890 481.622511 1428.010259 479.799178 1426.239385 C474.006483 1420.613042 475.230666 1413.820073 481.551253 1408.606572 C484.839613 1405.894048 488.747633 1405.009160 491.631300 1405.599248 C495.314131 1406.353032 498.736464 1409.601445 501.613509 1412.440923 C502.692152 1413.505376 502.325697 1416.520757 501.924178 1418.506230 C500.766982 1424.229131 502.460982 1427.622929 508.148299 1430.000005 C513.343581 1432.171513 515.626357 1436.640263 515.080702 1442.124272 C514.632399 1446.630376 515.500136 1450.956914 520.447401 1452.920537 C525.197035 1454.805669 528.267714 1457.152104 526.135329 1463.175542 C524.819350 1466.892949 529.071059 1473.009404 533.428908 1474.992803 C542.234816 1479.000615 543.028273 1489.410893 535.102004 1495.471928 C531.068068 1498.556645 526.701247 1499.055303 522.538649 1496.869878 C516.828993 1493.872197 514.686171 1488.436894 515.935866 1482.564092 C516.575514 1479.558354 514.212050 1476.109013 510.785750 1474.686162 C509.735640 1474.250005 508.921950 1473.244756 507.750014 1472.250005 z"/><path class="selected"  fill="#000000" opacity="1.000000" stroke="none" 
 	d="
M493.750014 1297.750005 C495.654067 1296.666631 497.237807 1295.612187 498.980605 1295.057744 C501.014479 1294.410527 503.481856 1293.350346 505.243636 1293.961553 C510.213576 1295.685185 514.601637 1298.968144 514.849074 1304.610844 C515.160475 1311.712407 516.041335 1317.506596 523.409926 1321.329228 C527.197218 1323.293950 527.420546 1329.132939 527.761122 1333.310674 C528.131361 1337.851689 530.070143 1340.425664 533.785292 1341.951299 C539.669325 1344.367558 541.185317 1347.175298 540.036208 1353.829594 C539.317030 1357.994145 541.215224 1360.779057 544.797011 1363.110844 C547.914076 1365.139897 550.898756 1367.786382 552.982680 1370.819096 C554.075148 1372.408940 554.698317 1375.458867 552.056105 1377.664311 C548.757277 1380.418095 546.212416 1384.173344 542.698622 1386.541631 C539.674513 1388.579961 531.234755 1383.722173 530.107130 1379.427983 C529.197218 1375.962651 529.784560 1372.065068 528.663161 1368.708257 C527.920851 1366.486333 525.548537 1364.596806 523.525465 1363.059209 C519.308180 1359.854009 515.275832 1357.248662 515.705336 1350.578618 C515.966505 1346.522710 514.227187 1341.970097 509.343733 1339.689946 C505.024458 1337.673100 501.868971 1334.539922 502.913863 1328.806157 C503.765028 1324.135503 501.338271 1320.748906 497.572279 1317.935918 C494.820967 1315.880742 491.962080 1313.475591 490.298506 1310.569585 C487.557112 1305.780888 489.728896 1301.515263 493.750014 1297.750005 z"/><path class="selected"  fill="#000000" opacity="1.000000" stroke="none" 
 	d="
M504.750014 1249.250005 C507.689467 1251.856084 510.255873 1254.374761 513.099196 1256.527593 C516.714430 1259.264653 515.618056 1263.136113 515.047438 1266.251347 C513.760573 1273.276860 507.074355 1274.291631 501.701399 1275.828984 C496.141005 1277.419927 487.246748 1266.967168 489.275435 1261.387090 C490.855330 1257.041386 488.633955 1254.832158 485.954726 1252.460820 C483.298781 1250.109990 480.172743 1248.131719 478.041121 1245.379521 C473.308394 1239.269048 475.067427 1233.253423 481.983595 1229.456670 C485.153639 1227.716802 488.650313 1225.332280 491.921980 1226.723760 C496.273055 1228.574345 500.794508 1231.162846 501.452254 1236.930547 C501.753554 1239.572514 502.138319 1242.219365 502.729842 1244.808232 C503.062575 1246.264287 503.893538 1247.606450 504.750014 1249.250005 z"/><path class="selected"  fill="#000000" opacity="1.000000" stroke="none" 
 	d="
M485.000014 1183.000005 C488.915968 1178.112187 491.467513 1182.924321 493.783766 1184.175053 C496.732771 1185.767461 499.929182 1188.166997 501.357192 1191.043584 C504.210036 1196.790532 499.332808 1205.733525 493.085921 1208.023808 C485.462202 1210.818852 476.947768 1204.008672 478.111433 1196.483281 C478.516005 1193.866704 475.954176 1191.082158 478.795668 1188.647832 C480.822462 1186.911504 482.607283 1184.892827 485.000014 1183.000005 z"/><path class="selected"  fill="#000000" opacity="1.000000" stroke="none" 
 	d="
M573.250014 1386.250005 C576.616408 1384.269536 580.340224 1382.656499 583.370680 1384.235967 C586.551650 1385.893926 589.293654 1388.995244 591.352614 1392.054692 C593.997084 1395.984136 589.107314 1405.061894 583.654494 1406.801396 C575.124831 1409.522344 569.228163 1405.466557 566.975295 1398.179814 C566.303908 1396.008183 568.048903 1392.866582 569.223280 1390.427739 C569.971999 1388.872807 571.707167 1387.792851 573.250014 1386.250005 z"/><path class="selected"  fill="#000000" opacity="1.000000" stroke="none" 
 	d="
M590.250014 1539.250005 C593.340651 1540.173833 596.190810 1541.325810 599.010695 1542.547612 C599.391371 1542.712407 599.620314 1543.227544 599.919569 1543.580449 C599.478468 1543.720342 599.038771 1543.975957 598.596022 1543.981206 C595.602248 1544.017094 592.607558 1544.028081 589.613905 1543.987920 C588.152724 1543.968388 586.693251 1543.821904 585.233046 1543.732915 C586.469191 1542.674931 587.711073 1541.623296 588.938002 1540.554692 C589.313307 1540.227666 589.647170 1539.852910 590.250014 1539.250005 z"/></svg>